<mxfile host="app.diagrams.net" agent="Mozilla/5.0 (Windows NT 10.0; Win64; x64) AppleWebKit/537.36 (KHTML, like Gecko) Chrome/135.0.0.0 Safari/537.36" version="26.2.15">
  <diagram name="Page-1" id="AWaCjP0LSM3ZvKZtN3BG">
    <mxGraphModel dx="1213" dy="777" grid="1" gridSize="10" guides="1" tooltips="1" connect="1" arrows="1" fold="1" page="1" pageScale="1" pageWidth="850" pageHeight="1100" math="0" shadow="0">
      <root>
        <mxCell id="0" />
        <mxCell id="1" parent="0" />
        <mxCell id="OY9gv0MZAPcD9iJYQiTi-77" value="" style="shape=image;verticalLabelPosition=bottom;labelBackgroundColor=default;verticalAlign=top;aspect=fixed;imageAspect=0;editableCssRules=.*;image=data:image/svg+xml,PHN2ZyB4bWxuczp4bGluaz0iaHR0cDovL3d3dy53My5vcmcvMTk5OS94bGluayIgeG1sbnM9Imh0dHA6Ly93d3cudzMub3JnLzIwMDAvc3ZnIiB2aWV3Qm94PSIwIDAgMjA3MSAxMjA4IiBoZWlnaHQ9IjEyMDgiIHdpZHRoPSIyMDcxIj4mI3hhOzxnIHRyYW5zZm9ybT0ic2NhbGUoMSAxKSByb3RhdGUoMCkgdHJhbnNsYXRlKDQgMTIwNCkiIGNsYXNzPSJncmFwaCIgaWQ9ImdyYXBoMCI+JiN4YTs8dGl0bGU+U291bmRTeXN0ZW1BcmNoaXRlY3R1cmU8L3RpdGxlPiYjeGE7PHBvbHlnb24gcG9pbnRzPSItNCw0IC00LC0xMjA0IDIwNjcsLTEyMDQgMjA2Nyw0IC00LDQiIHN0cm9rZT0idHJhbnNwYXJlbnQiIGZpbGw9IndoaXRlIi8+JiN4YTs8ZyBjbGFzcz0iY2x1c3RlciIgaWQ9ImNsdXN0MSI+JiN4YTs8dGl0bGU+Y2x1c3Rlcl9rZXk8L3RpdGxlPiYjeGE7PHBvbHlnb24gcG9pbnRzPSI4LC0zMjggOCwtMTE5MSAzNDYsLTExOTEgMzQ2LC0zMjggOCwtMzI4IiBzdHJva2U9ImJsYWNrIiBmaWxsPSJpdm9yeSIvPiYjeGE7PHRleHQgZm9udC1zaXplPSIxNC4wMCIgZm9udC1mYW1pbHk9IlRpbWVzLHNlcmlmIiB5PSItMTE3NS44IiB4PSIxNzciIHRleHQtYW5jaG9yPSJtaWRkbGUiPktleTwvdGV4dD4mI3hhOzwvZz4mI3hhOzxnIGNsYXNzPSJjbHVzdGVyIiBpZD0iY2x1c3QyIj4mI3hhOzx0aXRsZT5jbHVzdGVyX2dhbWVwbGF5PC90aXRsZT4mI3hhOzxwb2x5Z29uIHBvaW50cz0iMTEwOSwtMTA5MiAxMTA5LC0xMTkyIDE1MTMsLTExOTIgMTUxMywtMTA5MiAxMTA5LC0xMDkyIiBzdHJva2U9ImJsYWNrIiBmaWxsPSJhbGljZWJsdWUiLz4mI3hhOzx0ZXh0IGZvbnQtc2l6ZT0iMTQuMDAiIGZvbnQtZmFtaWx5PSJUaW1lcyxzZXJpZiIgeT0iLTExNzYuOCIgeD0iMTMxMSIgdGV4dC1hbmNob3I9Im1pZGRsZSI+R2FtZXBsYXkgTGF5ZXI8L3RleHQ+JiN4YTs8L2c+JiN4YTs8ZyBjbGFzcz0iY2x1c3RlciIgaWQ9ImNsdXN0MyI+JiN4YTs8dGl0bGU+Y2x1c3Rlcl9hdWRpb21hbmFnZXI8L3RpdGxlPiYjeGE7PHBvbHlnb24gcG9pbnRzPSIxMjMyLC04NTggMTIzMiwtMTAyNyAxNDQyLC0xMDI3IDE0NDIsLTg1OCAxMjMyLC04NTgiIHN0cm9rZT0iYmxhY2siIGZpbGw9Im1pc3R5cm9zZSIvPiYjeGE7PHRleHQgZm9udC1zaXplPSIxNC4wMCIgZm9udC1mYW1pbHk9IlRpbWVzLHNlcmlmIiB5PSItMTAxMS44IiB4PSIxMzM3IiB0ZXh0LWFuY2hvcj0ibWlkZGxlIj5BdWRpbyBNYW5hZ2VtZW50PC90ZXh0PiYjeGE7PC9nPiYjeGE7PGcgY2xhc3M9ImNsdXN0ZXIiIGlkPSJjbHVzdDQiPiYjeGE7PHRpdGxlPmNsdXN0ZXJfcGxheWJhY2s8L3RpdGxlPiYjeGE7PHBvbHlnb24gcG9pbnRzPSI1MDgsLTY4NS41IDUwOCwtNzg1LjUgMTU5OCwtNzg1LjUgMTU5OCwtNjg1LjUgNTA4LC02ODUuNSIgc3Ryb2tlPSJibGFjayIgZmlsbD0ibGlnaHRjeWFuIi8+JiN4YTs8dGV4dCBmb250LXNpemU9IjE0LjAwIiBmb250LWZhbWlseT0iVGltZXMsc2VyaWYiIHk9Ii03NzAuMyIgeD0iMTA1MyIgdGV4dC1hbmNob3I9Im1pZGRsZSI+UGxheWJhY2sgTm9kZXM8L3RleHQ+JiN4YTs8L2c+JiN4YTs8ZyBjbGFzcz0iY2x1c3RlciIgaWQ9ImNsdXN0NSI+JiN4YTs8dGl0bGU+Y2x1c3Rlcl9hc3NldHM8L3RpdGxlPiYjeGE7PHBvbHlnb24gcG9pbnRzPSIxNjk3LC02NzggMTY5NywtNzkzIDE4OTUsLTc5MyAxODk1LC02NzggMTY5NywtNjc4IiBzdHJva2U9ImJsYWNrIiBmaWxsPSJsZW1vbmNoaWZmb24iLz4mI3hhOzx0ZXh0IGZvbnQtc2l6ZT0iMTQuMDAiIGZvbnQtZmFtaWx5PSJUaW1lcyxzZXJpZiIgeT0iLTc3Ny44IiB4PSIxNzk2IiB0ZXh0LWFuY2hvcj0ibWlkZGxlIj5BdWRpbyBBc3NldHM8L3RleHQ+JiN4YTs8L2c+JiN4YTs8ZyBjbGFzcz0iY2x1c3RlciIgaWQ9ImNsdXN0NiI+JiN4YTs8dGl0bGU+Y2x1c3Rlcl9nb2RvdF9hdWRpbzwvdGl0bGU+JiN4YTs8cG9seWdvbiBwb2ludHM9Ijc0NywtOCA3NDcsLTYxMyAxMjkzLC02MTMgMTI5MywtOCA3NDcsLTgiIHN0cm9rZT0iYmxhY2siIGZpbGw9ImhvbmV5ZGV3Ii8+JiN4YTs8dGV4dCBmb250LXNpemU9IjE0LjAwIiBmb250LWZhbWlseT0iVGltZXMsc2VyaWYiIHk9Ii01OTcuOCIgeD0iMTAyMCIgdGV4dC1hbmNob3I9Im1pZGRsZSI+R29kb3QgQXVkaW8gRW5naW5lPC90ZXh0PiYjeGE7PC9nPiYjeGE7PGcgY2xhc3M9ImNsdXN0ZXIiIGlkPSJjbHVzdDciPiYjeGE7PHRpdGxlPmNsdXN0ZXJfYnVzZXM8L3RpdGxlPiYjeGE7PHBvbHlnb24gcG9pbnRzPSI3NTUsLTE2IDc1NSwtNTgyIDEyODUsLTU4MiAxMjg1LC0xNiA3NTUsLTE2IiBzdHJva2U9ImJsYWNrIiBmaWxsPSJwZWFjaHB1ZmYiLz4mI3hhOzx0ZXh0IGZvbnQtc2l6ZT0iMTQuMDAiIGZvbnQtZmFtaWx5PSJUaW1lcyxzZXJpZiIgeT0iLTU2Ni44IiB4PSIxMDIwIiB0ZXh0LWFuY2hvcj0ibWlkZGxlIj5BdWRpbyBCdXNlczwvdGV4dD4mI3hhOzwvZz4mI3hhOyYjeGE7PGcgY2xhc3M9Im5vZGUiIGlkPSJub2RlMSI+JiN4YTs8dGl0bGU+S2V5X0NvbXBvbmVudDwvdGl0bGU+JiN4YTs8cG9seWdvbiBwb2ludHM9IjMzNy41LC0xMTM3IDE4NC41LC0xMTM3IDE4NC41LC0xMTAxIDMzNy41LC0xMTAxIDMzNy41LC0xMTM3IiBzdHJva2U9ImJsYWNrIiBmaWxsPSJsaWdodGJsdWUiLz4mI3hhOzx0ZXh0IGZvbnQtc2l6ZT0iMTQuMDAiIGZvbnQtZmFtaWx5PSJIZWx2ZXRpY2Esc2Fucy1TZXJpZiIgeT0iLTExMTUuMyIgeD0iMjYxIiB0ZXh0LWFuY2hvcj0ibWlkZGxlIj5TeXN0ZW0gQ29tcG9uZW50PC90ZXh0PiYjeGE7PC9nPiYjeGE7JiN4YTs8ZyBjbGFzcz0ibm9kZSIgaWQ9Im5vZGUyIj4mI3hhOzx0aXRsZT5LZXlfTm9kZTwvdGl0bGU+JiN4YTs8cG9seWdvbiBwb2ludHM9IjMxOSwtOTM3LjUgMjIxLC05MzcuNSAyMjEsLTkzMy41IDIxNywtOTMzLjUgMjE3LC05MjkuNSAyMjEsLTkyOS41IDIyMSwtOTA5LjUgMjE3LC05MDkuNSAyMTcsLTkwNS41IDIyMSwtOTA1LjUgMjIxLC05MDEuNSAzMTksLTkwMS41IDMxOSwtOTM3LjUiIHN0cm9rZT0iYmxhY2siIGZpbGw9ImxpZ2h0Z3JlZW4iLz4mI3hhOzxwb2x5bGluZSBwb2ludHM9IjIyMSwtOTMzLjUgMjI1LC05MzMuNSAyMjUsLTkyOS41IDIyMSwtOTI5LjUiIHN0cm9rZT0iYmxhY2siIGZpbGw9Im5vbmUiLz4mI3hhOzxwb2x5bGluZSBwb2ludHM9IjIyMSwtOTA5LjUgMjI1LC05MDkuNSAyMjUsLTkwNS41IDIyMSwtOTA1LjUiIHN0cm9rZT0iYmxhY2siIGZpbGw9Im5vbmUiLz4mI3hhOzx0ZXh0IGZvbnQtc2l6ZT0iMTQuMDAiIGZvbnQtZmFtaWx5PSJIZWx2ZXRpY2Esc2Fucy1TZXJpZiIgeT0iLTkxNS44IiB4PSIyNzAiIHRleHQtYW5jaG9yPSJtaWRkbGUiPkdvZG90IE5vZGU8L3RleHQ+JiN4YTs8L2c+JiN4YTsmI3hhOyYjeGE7PGcgY2xhc3M9Im5vZGUiIGlkPSJub2RlMyI+JiN4YTs8dGl0bGU+S2V5X1Jlc291cmNlPC90aXRsZT4mI3hhOzxwb2x5Z29uIHBvaW50cz0iMzMwLC03MzAuNSAyMTQsLTczMC41IDIxNCwtNjk0LjUgMzM2LC02OTQuNSAzMzYsLTcyNC41IDMzMCwtNzMwLjUiIHN0cm9rZT0iYmxhY2siIGZpbGw9InllbGxvdyIvPiYjeGE7PHBvbHlsaW5lIHBvaW50cz0iMzMwLC03MzAuNSAzMzAsLTcyNC41IiBzdHJva2U9ImJsYWNrIiBmaWxsPSJub25lIi8+JiN4YTs8cG9seWxpbmUgcG9pbnRzPSIzMzYsLTcyNC41IDMzMCwtNzI0LjUiIHN0cm9rZT0iYmxhY2siIGZpbGw9Im5vbmUiLz4mI3hhOzx0ZXh0IGZvbnQtc2l6ZT0iMTQuMDAiIGZvbnQtZmFtaWx5PSJIZWx2ZXRpY2Esc2Fucy1TZXJpZiIgeT0iLTcwOC44IiB4PSIyNzUiIHRleHQtYW5jaG9yPSJtaWRkbGUiPlJlc291cmNlL0Fzc2V0PC90ZXh0PiYjeGE7PC9nPiYjeGE7JiN4YTsmI3hhOzxnIGNsYXNzPSJub2RlIiBpZD0ibm9kZTQiPiYjeGE7PHRpdGxlPktleV9CdXM8L3RpdGxlPiYjeGE7PHBvbHlnb24gcG9pbnRzPSIzMTUuNSwtNTI4IDMxMi41LC01MzIgMjkxLjUsLTUzMiAyODguNSwtNTI4IDIyOC41LC01MjggMjI4LjUsLTQ5MiAzMTUuNSwtNDkyIDMxNS41LC01MjgiIHN0cm9rZT0iYmxhY2siIGZpbGw9Im9yYW5nZSIvPiYjeGE7PHRleHQgZm9udC1zaXplPSIxNC4wMCIgZm9udC1mYW1pbHk9IkhlbHZldGljYSxzYW5zLVNlcmlmIiB5PSItNTA2LjMiIHg9IjI3MiIgdGV4dC1hbmNob3I9Im1pZGRsZSI+QXVkaW8gQnVzPC90ZXh0PiYjeGE7PC9nPiYjeGE7JiN4YTsmI3hhOzxnIGNsYXNzPSJub2RlIiBpZD0ibm9kZTUiPiYjeGE7PHRpdGxlPktleV9TaW5nbGV0b248L3RpdGxlPiYjeGE7PHBhdGggZD0iTTIwMiwtMzM2LjVDMjAyLC0zMzYuNSAzMjYsLTMzNi41IDMyNiwtMzM2LjUgMzMyLC0zMzYuNSAzMzgsLTM0Mi41IDMzOCwtMzQ4LjUgMzM4LC0zNDguNSAzMzgsLTM2MC41IDMzOCwtMzYwLjUgMzM4LC0zNjYuNSAzMzIsLTM3Mi41IDMyNiwtMzcyLjUgMzI2LC0zNzIuNSAyMDIsLTM3Mi41IDIwMiwtMzcyLjUgMTk2LC0zNzIuNSAxOTAsLTM2Ni41IDE5MCwtMzYwLjUgMTkwLC0zNjAuNSAxOTAsLTM0OC41IDE5MCwtMzQ4LjUgMTkwLC0zNDIuNSAxOTYsLTMzNi41IDIwMiwtMzM2LjUiIHN0cm9rZT0iYmxhY2siIGZpbGw9ImxpZ2h0Y29yYWwiLz4mI3hhOzx0ZXh0IGZvbnQtc2l6ZT0iMTQuMDAiIGZvbnQtZmFtaWx5PSJIZWx2ZXRpY2Esc2Fucy1TZXJpZiIgeT0iLTM1MC44IiB4PSIyNjQiIHRleHQtYW5jaG9yPSJtaWRkbGUiPkF1dG9sb2FkIFNpbmdsZXRvbjwvdGV4dD4mI3hhOzwvZz4mI3hhOyYjeGE7JiN4YTs8ZyBjbGFzcz0ibm9kZSIgaWQ9Im5vZGU2Ij4mI3hhOzx0aXRsZT5LZXlfRWRnZV9UcmlnZ2VyPC90aXRsZT4mI3hhOzxwb2x5Z29uIHBvaW50cz0iMTI2LC0xMTM3IDE2LC0xMTM3IDE2LC0xMTAxIDEyNiwtMTEwMSAxMjYsLTExMzciIHN0cm9rZT0iYmxhY2siIGZpbGw9Im5vbmUiLz4mI3hhOzx0ZXh0IGZvbnQtc2l6ZT0iMTQuMDAiIGZvbnQtZmFtaWx5PSJIZWx2ZXRpY2Esc2Fucy1TZXJpZiIgeT0iLTExMTUuMyIgeD0iNzEiIHRleHQtYW5jaG9yPSJtaWRkbGUiPlRyaWdnZXJzL0NhbGxzPC90ZXh0PiYjeGE7PC9nPiYjeGE7JiN4YTs8ZyBjbGFzcz0ibm9kZSIgaWQ9Im5vZGU3Ij4mI3hhOzx0aXRsZT5LZXlfRWRnZV9EYXRhRmxvdzwvdGl0bGU+JiN4YTs8cG9seWdvbiBwb2ludHM9IjE0Ny41LC05MzcuNSAxOC41LC05MzcuNSAxOC41LC05MDEuNSAxNDcuNSwtOTAxLjUgMTQ3LjUsLTkzNy41IiBzdHJva2UtZGFzaGFycmF5PSI1LDIiIHN0cm9rZT0iYmx1ZSIgZmlsbD0ibm9uZSIvPiYjeGE7PHRleHQgZm9udC1zaXplPSIxNC4wMCIgZm9udC1mYW1pbHk9IkhlbHZldGljYSxzYW5zLVNlcmlmIiB5PSItOTE1LjgiIHg9IjgzIiB0ZXh0LWFuY2hvcj0ibWlkZGxlIj5BdWRpbyBEYXRhIEZsb3c8L3RleHQ+JiN4YTs8L2c+JiN4YTsmI3hhOyYjeGE7PGcgY2xhc3M9Im5vZGUiIGlkPSJub2RlOCI+JiN4YTs8dGl0bGU+S2V5X0VkZ2VfQ29udHJvbDwvdGl0bGU+JiN4YTs8cG9seWdvbiBwb2ludHM9IjE1NiwtNzMwLjUgMTYsLTczMC41IDE2LC02OTQuNSAxNTYsLTY5NC41IDE1NiwtNzMwLjUiIHN0cm9rZS1kYXNoYXJyYXk9IjEsNSIgc3Ryb2tlPSJyZWQiIGZpbGw9Im5vbmUiLz4mI3hhOzx0ZXh0IGZvbnQtc2l6ZT0iMTQuMDAiIGZvbnQtZmFtaWx5PSJIZWx2ZXRpY2Esc2Fucy1TZXJpZiIgeT0iLTcwOC44IiB4PSI4NiIgdGV4dC1hbmNob3I9Im1pZGRsZSI+Q29udHJvbHMvTWFuYWdlczwvdGV4dD4mI3hhOzwvZz4mI3hhOyYjeGE7JiN4YTs8ZyBjbGFzcz0ibm9kZSIgaWQ9Im5vZGU5Ij4mI3hhOzx0aXRsZT5HYW1lT2JqZWN0czwvdGl0bGU+JiN4YTs8cG9seWdvbiBwb2ludHM9IjEzMzMsLTExMzggMTExNywtMTEzOCAxMTE3LC0xMTAwIDEzMzMsLTExMDAgMTMzMywtMTEzOCIgc3Ryb2tlPSJibGFjayIgZmlsbD0ibGlnaHRibHVlIi8+JiN4YTs8dGV4dCBmb250LXNpemU9IjE0LjAwIiBmb250LWZhbWlseT0iSGVsdmV0aWNhLHNhbnMtU2VyaWYiIHk9Ii0xMTIyLjgiIHg9IjEyMjUiIHRleHQtYW5jaG9yPSJtaWRkbGUiPkdhbWUgT2JqZWN0czwvdGV4dD4mI3hhOzx0ZXh0IGZvbnQtc2l6ZT0iMTQuMDAiIGZvbnQtZmFtaWx5PSJIZWx2ZXRpY2Esc2Fucy1TZXJpZiIgeT0iLTExMDcuOCIgeD0iMTIyNSIgdGV4dC1hbmNob3I9Im1pZGRsZSI+KFBsYXllciwgQmFsbCwgT2JzdGFjbGVzLCBldGMuKTwvdGV4dD4mI3hhOzwvZz4mI3hhOyYjeGE7PGcgY2xhc3M9Im5vZGUiIGlkPSJub2RlMTEiPiYjeGE7PHRpdGxlPkF1ZGlvTWFuYWdlcjwvdGl0bGU+JiN4YTs8cGF0aCBkPSJNMTI1MiwtODY2LjVDMTI1MiwtODY2LjUgMTQyMiwtODY2LjUgMTQyMiwtODY2LjUgMTQyOCwtODY2LjUgMTQzNCwtODcyLjUgMTQzNCwtODc4LjUgMTQzNCwtODc4LjUgMTQzNCwtOTYwLjUgMTQzNCwtOTYwLjUgMTQzNCwtOTY2LjUgMTQyOCwtOTcyLjUgMTQyMiwtOTcyLjUgMTQyMiwtOTcyLjUgMTI1MiwtOTcyLjUgMTI1MiwtOTcyLjUgMTI0NiwtOTcyLjUgMTI0MCwtOTY2LjUgMTI0MCwtOTYwLjUgMTI0MCwtOTYwLjUgMTI0MCwtODc4LjUgMTI0MCwtODc4LjUgMTI0MCwtODcyLjUgMTI0NiwtODY2LjUgMTI1MiwtODY2LjUiIHN0cm9rZT0iYmxhY2siIGZpbGw9ImxpZ2h0Y29yYWwiLz4mI3hhOzx0ZXh0IGZvbnQtc2l6ZT0iMTQuMDAiIGZvbnQtZmFtaWx5PSJIZWx2ZXRpY2Esc2Fucy1TZXJpZiIgeT0iLTk1Ny4zIiB4PSIxMzM3IiB0ZXh0LWFuY2hvcj0ibWlkZGxlIj5BdWRpb01hbmFnZXIgKEF1dG9sb2FkKTwvdGV4dD4mI3hhOzxwb2x5bGluZSBwb2ludHM9IjEyNDAsLTk0OS41IDE0MzQsLTk0OS41IiBzdHJva2U9ImJsYWNrIiBmaWxsPSJub25lIi8+JiN4YTs8dGV4dCBmb250LXNpemU9IjE0LjAwIiBmb250LWZhbWlseT0iSGVsdmV0aWNhLHNhbnMtU2VyaWYiIHk9Ii05MzQuMyIgeD0iMTI0OCIgdGV4dC1hbmNob3I9InN0YXJ0Ij4rIHBsYXlfc2Z4KCk8L3RleHQ+JiN4YTs8dGV4dCBmb250LXNpemU9IjE0LjAwIiBmb250LWZhbWlseT0iSGVsdmV0aWNhLHNhbnMtU2VyaWYiIHk9Ii05MTkuMyIgeD0iMTI0OCIgdGV4dC1hbmNob3I9InN0YXJ0Ij4rIHBsYXlfdWlfc2Z4KCk8L3RleHQ+JiN4YTs8dGV4dCBmb250LXNpemU9IjE0LjAwIiBmb250LWZhbWlseT0iSGVsdmV0aWNhLHNhbnMtU2VyaWYiIHk9Ii05MDQuMyIgeD0iMTI0OCIgdGV4dC1hbmNob3I9InN0YXJ0Ij4rIHBsYXlfbXVzaWMoKTwvdGV4dD4mI3hhOzx0ZXh0IGZvbnQtc2l6ZT0iMTQuMDAiIGZvbnQtZmFtaWx5PSJIZWx2ZXRpY2Esc2Fucy1TZXJpZiIgeT0iLTg4OS4zIiB4PSIxMjQ4IiB0ZXh0LWFuY2hvcj0ic3RhcnQiPisgc2V0X2J1c192b2x1bWUoKTwvdGV4dD4mI3hhOzx0ZXh0IGZvbnQtc2l6ZT0iMTQuMDAiIGZvbnQtZmFtaWx5PSJIZWx2ZXRpY2Esc2Fucy1TZXJpZiIgeT0iLTg3NC4zIiB4PSIxMjQ4IiB0ZXh0LWFuY2hvcj0ic3RhcnQiPisgbWFuYWdlX3Bvb2xzKCk8L3RleHQ+JiN4YTs8L2c+JiN4YTsmI3hhOzxnIGNsYXNzPSJlZGdlIiBpZD0iZWRnZTE4Ij4mI3hhOzx0aXRsZT5HYW1lT2JqZWN0cy0mZ3Q7QXVkaW9NYW5hZ2VyPC90aXRsZT4mI3hhOzxwYXRoIGQ9Ik0xMjg2LjUsLTEwOTkuODdDMTI4Ni41LC0xMDk5Ljg3IDEyODYuNSwtOTgyLjg4IDEyODYuNSwtOTgyLjg4IiBzdHJva2U9ImJsYWNrIiBmaWxsPSJub25lIi8+JiN4YTs8cG9seWdvbiBwb2ludHM9IjEyOTAsLTk4Mi44OCAxMjg2LjUsLTk3Mi44OCAxMjgzLC05ODIuODggMTI5MCwtOTgyLjg4IiBzdHJva2U9ImJsYWNrIiBmaWxsPSJibGFjayIvPiYjeGE7PHRleHQgZm9udC1zaXplPSIxMC4wMCIgZm9udC1mYW1pbHk9IkhlbHZldGljYSxzYW5zLVNlcmlmIiB5PSItMTAzOCIgeD0iMTI5Mi41IiB0ZXh0LWFuY2hvcj0ibWlkZGxlIj5SZXF1ZXN0IFNGWCBQbGF5YmFjazwvdGV4dD4mI3hhOzwvZz4mI3hhOyYjeGE7PGcgY2xhc3M9Im5vZGUiIGlkPSJub2RlMTAiPiYjeGE7PHRpdGxlPlVJU2NlbmVzPC90aXRsZT4mI3hhOzxwb2x5Z29uIHBvaW50cz0iMTUwNC41LC0xMTM4IDEzOTEuNSwtMTEzOCAxMzkxLjUsLTExMDAgMTUwNC41LC0xMTAwIDE1MDQuNSwtMTEzOCIgc3Ryb2tlPSJibGFjayIgZmlsbD0ibGlnaHRibHVlIi8+JiN4YTs8dGV4dCBmb250LXNpemU9IjE0LjAwIiBmb250LWZhbWlseT0iSGVsdmV0aWNhLHNhbnMtU2VyaWYiIHk9Ii0xMTIyLjgiIHg9IjE0NDgiIHRleHQtYW5jaG9yPSJtaWRkbGUiPlVJIFNjZW5lczwvdGV4dD4mI3hhOzx0ZXh0IGZvbnQtc2l6ZT0iMTQuMDAiIGZvbnQtZmFtaWx5PSJIZWx2ZXRpY2Esc2Fucy1TZXJpZiIgeT0iLTExMDcuOCIgeD0iMTQ0OCIgdGV4dC1hbmNob3I9Im1pZGRsZSI+KE1lbnVzLCBIVUQpPC90ZXh0PiYjeGE7PC9nPiYjeGE7JiN4YTs8ZyBjbGFzcz0iZWRnZSIgaWQ9ImVkZ2UxOSI+JiN4YTs8dGl0bGU+VUlTY2VuZXMtJmd0O0F1ZGlvTWFuYWdlcjwvdGl0bGU+JiN4YTs8cGF0aCBkPSJNMTQxMi43NSwtMTA5OS44N0MxNDEyLjc1LC0xMDk5Ljg3IDE0MTIuNzUsLTk4Mi44OCAxNDEyLjc1LC05ODIuODgiIHN0cm9rZT0iYmxhY2siIGZpbGw9Im5vbmUiLz4mI3hhOzxwb2x5Z29uIHBvaW50cz0iMTQxNi4yNSwtOTgyLjg4IDE0MTIuNzUsLTk3Mi44OCAxNDA5LjI1LC05ODIuODggMTQxNi4yNSwtOTgyLjg4IiBzdHJva2U9ImJsYWNrIiBmaWxsPSJibGFjayIvPiYjeGE7PHRleHQgZm9udC1zaXplPSIxMC4wMCIgZm9udC1mYW1pbHk9IkhlbHZldGljYSxzYW5zLVNlcmlmIiB5PSItMTAzOCIgeD0iMTUwMS41IiB0ZXh0LWFuY2hvcj0ibWlkZGxlIj5SZXF1ZXN0IFVJL011c2ljIFBsYXliYWNrPC90ZXh0PiYjeGE7PC9nPiYjeGE7JiN4YTs8ZyBjbGFzcz0ibm9kZSIgaWQ9Im5vZGUxMiI+JiN4YTs8dGl0bGU+QVNQX1Bvb2w8L3RpdGxlPiYjeGE7PHBvbHlnb24gcG9pbnRzPSIxMzEwLC03MzEuNSAxMDkyLC03MzEuNSAxMDkyLC03MjcuNSAxMDg4LC03MjcuNSAxMDg4LC03MjMuNSAxMDkyLC03MjMuNSAxMDkyLC03MDEuNSAxMDg4LC03MDEuNSAxMDg4LC02OTcuNSAxMDkyLC02OTcuNSAxMDkyLC02OTMuNSAxMzEwLC02OTMuNSAxMzEwLC03MzEuNSIgc3Ryb2tlPSJibGFjayIgZmlsbD0ibGlnaHRncmVlbiIvPiYjeGE7PHBvbHlsaW5lIHBvaW50cz0iMTA5MiwtNzI3LjUgMTA5NiwtNzI3LjUgMTA5NiwtNzIzLjUgMTA5MiwtNzIzLjUiIHN0cm9rZT0iYmxhY2siIGZpbGw9Im5vbmUiLz4mI3hhOzxwb2x5bGluZSBwb2ludHM9IjEwOTIsLTcwMS41IDEwOTYsLTcwMS41IDEwOTYsLTY5Ny41IDEwOTIsLTY5Ny41IiBzdHJva2U9ImJsYWNrIiBmaWxsPSJub25lIi8+JiN4YTs8dGV4dCBmb250LXNpemU9IjE0LjAwIiBmb250LWZhbWlseT0iSGVsdmV0aWNhLHNhbnMtU2VyaWYiIHk9Ii03MTYuMyIgeD0iMTIwMSIgdGV4dC1hbmNob3I9Im1pZGRsZSI+QXVkaW9TdHJlYW1QbGF5ZXIgUG9vbDwvdGV4dD4mI3hhOzx0ZXh0IGZvbnQtc2l6ZT0iMTQuMDAiIGZvbnQtZmFtaWx5PSJIZWx2ZXRpY2Esc2Fucy1TZXJpZiIgeT0iLTcwMS4zIiB4PSIxMjAxIiB0ZXh0LWFuY2hvcj0ibWlkZGxlIj4oTWFuYWdlZCBieSBBdWRpb01hbmFnZXIpPC90ZXh0PiYjeGE7PC9nPiYjeGE7JiN4YTs8ZyBjbGFzcz0iZWRnZSIgaWQ9ImVkZ2UyMCI+JiN4YTs8dGl0bGU+QXVkaW9NYW5hZ2VyLSZndDtBU1BfUG9vbDwvdGl0bGU+JiN4YTs8cGF0aCBkPSJNMTI3NSwtODY2LjQ2QzEyNzUsLTg2Ni40NiAxMjc1LC03NDEuNzIgMTI3NSwtNzQxLjcyIiBzdHJva2UtZGFzaGFycmF5PSIxLDUiIHN0cm9rZT0icmVkIiBmaWxsPSJub25lIi8+JiN4YTs8cG9seWdvbiBwb2ludHM9IjEyNzguNSwtNzQxLjcyIDEyNzUsLTczMS43MiAxMjcxLjUsLTc0MS43MiAxMjc4LjUsLTc0MS43MiIgc3Ryb2tlPSJyZWQiIGZpbGw9InJlZCIvPiYjeGE7PHRleHQgZm9udC1zaXplPSIxMC4wMCIgZm9udC1mYW1pbHk9IkhlbHZldGljYSxzYW5zLVNlcmlmIiB5PSItODA0IiB4PSIxMjI1LjUiIHRleHQtYW5jaG9yPSJtaWRkbGUiPk1hbmFnZXM8L3RleHQ+JiN4YTs8L2c+JiN4YTsmI3hhOzxnIGNsYXNzPSJub2RlIiBpZD0ibm9kZTEzIj4mI3hhOzx0aXRsZT5BU1AzRF9Qb29sPC90aXRsZT4mI3hhOzxwb2x5Z29uIHBvaW50cz0iMTAzNCwtNzMxLjUgODE2LC03MzEuNSA4MTYsLTcyNy41IDgxMiwtNzI3LjUgODEyLC03MjMuNSA4MTYsLTcyMy41IDgxNiwtNzAxLjUgODEyLC03MDEuNSA4MTIsLTY5Ny41IDgxNiwtNjk3LjUgODE2LC02OTMuNSAxMDM0LC02OTMuNSAxMDM0LC03MzEuNSIgc3Ryb2tlPSJibGFjayIgZmlsbD0ibGlnaHRncmVlbiIvPiYjeGE7PHBvbHlsaW5lIHBvaW50cz0iODE2LC03MjcuNSA4MjAsLTcyNy41IDgyMCwtNzIzLjUgODE2LC03MjMuNSIgc3Ryb2tlPSJibGFjayIgZmlsbD0ibm9uZSIvPiYjeGE7PHBvbHlsaW5lIHBvaW50cz0iODE2LC03MDEuNSA4MjAsLTcwMS41IDgyMCwtNjk3LjUgODE2LC02OTcuNSIgc3Ryb2tlPSJibGFjayIgZmlsbD0ibm9uZSIvPiYjeGE7PHRleHQgZm9udC1zaXplPSIxNC4wMCIgZm9udC1mYW1pbHk9IkhlbHZldGljYSxzYW5zLVNlcmlmIiB5PSItNzE2LjMiIHg9IjkyNSIgdGV4dC1hbmNob3I9Im1pZGRsZSI+QXVkaW9TdHJlYW1QbGF5ZXIzRCBQb29sPC90ZXh0PiYjeGE7PHRleHQgZm9udC1zaXplPSIxNC4wMCIgZm9udC1mYW1pbHk9IkhlbHZldGljYSxzYW5zLVNlcmlmIiB5PSItNzAxLjMiIHg9IjkyNSIgdGV4dC1hbmNob3I9Im1pZGRsZSI+KE1hbmFnZWQgYnkgQXVkaW9NYW5hZ2VyKTwvdGV4dD4mI3hhOzwvZz4mI3hhOyYjeGE7PGcgY2xhc3M9ImVkZ2UiIGlkPSJlZGdlMjEiPiYjeGE7PHRpdGxlPkF1ZGlvTWFuYWdlci0mZ3Q7QVNQM0RfUG9vbDwvdGl0bGU+JiN4YTs8cGF0aCBkPSJNMTIzOS44OCwtODc3QzExMTguMDgsLTg3NyA5MjUsLTg3NyA5MjUsLTg3NyA5MjUsLTg3NyA5MjUsLTc0MS42OSA5MjUsLTc0MS42OSIgc3Ryb2tlLWRhc2hhcnJheT0iMSw1IiBzdHJva2U9InJlZCIgZmlsbD0ibm9uZSIvPiYjeGE7PHBvbHlnb24gcG9pbnRzPSI5MjguNSwtNzQxLjY5IDkyNSwtNzMxLjY5IDkyMS41LC03NDEuNjkgOTI4LjUsLTc0MS42OSIgc3Ryb2tlPSJyZWQiIGZpbGw9InJlZCIvPiYjeGE7PHRleHQgZm9udC1zaXplPSIxMC4wMCIgZm9udC1mYW1pbHk9IkhlbHZldGljYSxzYW5zLVNlcmlmIiB5PSItODA0IiB4PSIxMDMzLjUiIHRleHQtYW5jaG9yPSJtaWRkbGUiPk1hbmFnZXM8L3RleHQ+JiN4YTs8L2c+JiN4YTsmI3hhOzxnIGNsYXNzPSJub2RlIiBpZD0ibm9kZTE0Ij4mI3hhOzx0aXRsZT5BU1BfQXR0YWNoZWQ8L3RpdGxlPiYjeGE7PHBvbHlnb24gcG9pbnRzPSIxNTkwLC03MzEuNSAxMzY4LC03MzEuNSAxMzY4LC03MjcuNSAxMzY0LC03MjcuNSAxMzY0LC03MjMuNSAxMzY4LC03MjMuNSAxMzY4LC03MDEuNSAxMzY0LC03MDEuNSAxMzY0LC02OTcuNSAxMzY4LC02OTcuNSAxMzY4LC02OTMuNSAxNTkwLC02OTMuNSAxNTkwLC03MzEuNSIgc3Ryb2tlPSJibGFjayIgZmlsbD0ibGlnaHRncmVlbiIvPiYjeGE7PHBvbHlsaW5lIHBvaW50cz0iMTM2OCwtNzI3LjUgMTM3MiwtNzI3LjUgMTM3MiwtNzIzLjUgMTM2OCwtNzIzLjUiIHN0cm9rZT0iYmxhY2siIGZpbGw9Im5vbmUiLz4mI3hhOzxwb2x5bGluZSBwb2ludHM9IjEzNjgsLTcwMS41IDEzNzIsLTcwMS41IDEzNzIsLTY5Ny41IDEzNjgsLTY5Ny41IiBzdHJva2U9ImJsYWNrIiBmaWxsPSJub25lIi8+JiN4YTs8dGV4dCBmb250LXNpemU9IjE0LjAwIiBmb250LWZhbWlseT0iSGVsdmV0aWNhLHNhbnMtU2VyaWYiIHk9Ii03MTYuMyIgeD0iMTQ3OSIgdGV4dC1hbmNob3I9Im1pZGRsZSI+QXR0YWNoZWQgQXVkaW9TdHJlYW1QbGF5ZXJzPC90ZXh0PiYjeGE7PHRleHQgZm9udC1zaXplPSIxNC4wMCIgZm9udC1mYW1pbHk9IkhlbHZldGljYSxzYW5zLVNlcmlmIiB5PSItNzAxLjMiIHg9IjE0NzkiIHRleHQtYW5jaG9yPSJtaWRkbGUiPihVSSwgTXVzaWMpPC90ZXh0PiYjeGE7PC9nPiYjeGE7JiN4YTs8ZyBjbGFzcz0iZWRnZSIgaWQ9ImVkZ2UyMiI+JiN4YTs8dGl0bGU+QXVkaW9NYW5hZ2VyLSZndDtBU1BfQXR0YWNoZWQ8L3RpdGxlPiYjeGE7PHBhdGggZD0iTTEzOTAsLTg2Ni40NkMxMzkwLC04NjYuNDYgMTM5MCwtNzQxLjcyIDEzOTAsLTc0MS43MiIgc3Ryb2tlLWRhc2hhcnJheT0iMSw1IiBzdHJva2U9InJlZCIgZmlsbD0ibm9uZSIvPiYjeGE7PHBvbHlnb24gcG9pbnRzPSIxMzkzLjUsLTc0MS43MiAxMzkwLC03MzEuNzIgMTM4Ni41LC03NDEuNzIgMTM5My41LC03NDEuNzIiIHN0cm9rZT0icmVkIiBmaWxsPSJyZWQiLz4mI3hhOzx0ZXh0IGZvbnQtc2l6ZT0iMTAuMDAiIGZvbnQtZmFtaWx5PSJIZWx2ZXRpY2Esc2Fucy1TZXJpZiIgeT0iLTgwNCIgeD0iMTQ5MS41IiB0ZXh0LWFuY2hvcj0ibWlkZGxlIj5NYW5hZ2VzPC90ZXh0PiYjeGE7PC9nPiYjeGE7JiN4YTs8ZyBjbGFzcz0ibm9kZSIgaWQ9Im5vZGUxNSI+JiN4YTs8dGl0bGU+QVNQM0RfQXR0YWNoZWQ8L3RpdGxlPiYjeGE7PHBvbHlnb24gcG9pbnRzPSI3NTgsLTczMS41IDUxNiwtNzMxLjUgNTE2LC03MjcuNSA1MTIsLTcyNy41IDUxMiwtNzIzLjUgNTE2LC03MjMuNSA1MTYsLTcwMS41IDUxMiwtNzAxLjUgNTEyLC02OTcuNSA1MTYsLTY5Ny41IDUxNiwtNjkzLjUgNzU4LC02OTMuNSA3NTgsLTczMS41IiBzdHJva2U9ImJsYWNrIiBmaWxsPSJsaWdodGdyZWVuIi8+JiN4YTs8cG9seWxpbmUgcG9pbnRzPSI1MTYsLTcyNy41IDUyMCwtNzI3LjUgNTIwLC03MjMuNSA1MTYsLTcyMy41IiBzdHJva2U9ImJsYWNrIiBmaWxsPSJub25lIi8+JiN4YTs8cG9seWxpbmUgcG9pbnRzPSI1MTYsLTcwMS41IDUyMCwtNzAxLjUgNTIwLC02OTcuNSA1MTYsLTY5Ny41IiBzdHJva2U9ImJsYWNrIiBmaWxsPSJub25lIi8+JiN4YTs8dGV4dCBmb250LXNpemU9IjE0LjAwIiBmb250LWZhbWlseT0iSGVsdmV0aWNhLHNhbnMtU2VyaWYiIHk9Ii03MTYuMyIgeD0iNjM3IiB0ZXh0LWFuY2hvcj0ibWlkZGxlIj5BdHRhY2hlZCBBdWRpb1N0cmVhbVBsYXllcjNEczwvdGV4dD4mI3hhOzx0ZXh0IGZvbnQtc2l6ZT0iMTQuMDAiIGZvbnQtZmFtaWx5PSJIZWx2ZXRpY2Esc2Fucy1TZXJpZiIgeT0iLTcwMS4zIiB4PSI2MzciIHRleHQtYW5jaG9yPSJtaWRkbGUiPihPbiBHYW1lIE9iamVjdHMpPC90ZXh0PiYjeGE7PC9nPiYjeGE7JiN4YTs8ZyBjbGFzcz0iZWRnZSIgaWQ9ImVkZ2UyMyI+JiN4YTs8dGl0bGU+QXVkaW9NYW5hZ2VyLSZndDtBU1AzRF9BdHRhY2hlZDwvdGl0bGU+JiN4YTs8cGF0aCBkPSJNMTIzOS42NiwtODg5QzEwNTYuMTcsLTg4OSA2NzcuMzMsLTg4OSA2NzcuMzMsLTg4OSA2NzcuMzMsLTg4OSA2NzcuMzMsLTc0MS43MiA2NzcuMzMsLTc0MS43MiIgc3Ryb2tlLWRhc2hhcnJheT0iMSw1IiBzdHJva2U9InJlZCIgZmlsbD0ibm9uZSIvPiYjeGE7PHBvbHlnb24gcG9pbnRzPSI2ODAuODMsLTc0MS43MiA2NzcuMzMsLTczMS43MiA2NzMuODMsLTc0MS43MiA2ODAuODMsLTc0MS43MiIgc3Ryb2tlPSJyZWQiIGZpbGw9InJlZCIvPiYjeGE7PHRleHQgZm9udC1zaXplPSIxMC4wMCIgZm9udC1mYW1pbHk9IkhlbHZldGljYSxzYW5zLVNlcmlmIiB5PSItODA0IiB4PSI3NTEuNSIgdGV4dC1hbmNob3I9Im1pZGRsZSI+Q29udHJvbHM8L3RleHQ+JiN4YTs8L2c+JiN4YTsmI3hhOzxnIGNsYXNzPSJub2RlIiBpZD0ibm9kZTE2Ij4mI3hhOzx0aXRsZT5BdWRpb0Fzc2V0czwvdGl0bGU+JiN4YTs8cG9seWdvbiBwb2ludHM9IjE4ODAuNSwtNzM5IDE3MDUuNSwtNzM5IDE3MDUuNSwtNjg2IDE4ODYuNSwtNjg2IDE4ODYuNSwtNzMzIDE4ODAuNSwtNzM5IiBzdHJva2U9ImJsYWNrIiBmaWxsPSJ5ZWxsb3ciLz4mI3hhOzxwb2x5bGluZSBwb2ludHM9IjE4ODAuNSwtNzM5IDE4ODAuNSwtNzMzIiBzdHJva2U9ImJsYWNrIiBmaWxsPSJub25lIi8+JiN4YTs8cG9seWxpbmUgcG9pbnRzPSIxODg2LjUsLTczMyAxODgwLjUsLTczMyIgc3Ryb2tlPSJibGFjayIgZmlsbD0ibm9uZSIvPiYjeGE7PHRleHQgZm9udC1zaXplPSIxNC4wMCIgZm9udC1mYW1pbHk9IkhlbHZldGljYSxzYW5zLVNlcmlmIiB5PSItNzIzLjgiIHg9IjE3OTYiIHRleHQtYW5jaG9yPSJtaWRkbGUiPkF1ZGlvU3RyZWFtIFJlc291cmNlczwvdGV4dD4mI3hhOzx0ZXh0IGZvbnQtc2l6ZT0iMTQuMDAiIGZvbnQtZmFtaWx5PSJIZWx2ZXRpY2Esc2Fucy1TZXJpZiIgeT0iLTcwOC44IiB4PSIxNzk2IiB0ZXh0LWFuY2hvcj0ibWlkZGxlIj4oLm9nZywgLndhdik8L3RleHQ+JiN4YTs8dGV4dCBmb250LXNpemU9IjE0LjAwIiBmb250LWZhbWlseT0iSGVsdmV0aWNhLHNhbnMtU2VyaWYiIHk9Ii02OTMuOCIgeD0iMTc5NiIgdGV4dC1hbmNob3I9Im1pZGRsZSI+KFNGWCwgTXVzaWMpPC90ZXh0PiYjeGE7PC9nPiYjeGE7JiN4YTs8ZyBjbGFzcz0iZWRnZSIgaWQ9ImVkZ2UyNCI+JiN4YTs8dGl0bGU+QXVkaW9NYW5hZ2VyLSZndDtBdWRpb0Fzc2V0czwvdGl0bGU+JiN4YTs8cGF0aCBkPSJNMTQxMiwtODY2LjQyQzE0MTIsLTgxMi4yMyAxNDEyLC03MzYgMTQxMiwtNzM2IDE0MTIsLTczNiAxNjk1LjQ4LC03MzYgMTY5NS40OCwtNzM2IiBzdHJva2U9ImJsYWNrIiBmaWxsPSJub25lIi8+JiN4YTs8cG9seWdvbiBwb2ludHM9IjE2OTUuNDgsLTczOS41IDE3MDUuNDgsLTczNiAxNjk1LjQ4LC03MzIuNSAxNjk1LjQ4LC03MzkuNSIgc3Ryb2tlPSJibGFjayIgZmlsbD0iYmxhY2siLz4mI3hhOzx0ZXh0IGZvbnQtc2l6ZT0iMTAuMDAiIGZvbnQtZmFtaWx5PSJIZWx2ZXRpY2Esc2Fucy1TZXJpZiIgeT0iLTgwNCIgeD0iMTcwMS41IiB0ZXh0LWFuY2hvcj0ibWlkZGxlIj5Mb2FkczwvdGV4dD4mI3hhOzwvZz4mI3hhOyYjeGE7PGcgY2xhc3M9Im5vZGUiIGlkPSJub2RlMTciPiYjeGE7PHRpdGxlPkF1ZGlvU2VydmVyPC90aXRsZT4mI3hhOzxwb2x5Z29uIHBvaW50cz0iMTI3NiwtNjEgMTE3NCwtNjEgMTE3NCwtMjUgMTI3NiwtMjUgMTI3NiwtNjEiIHN0cm9rZT0iYmxhY2siIGZpbGw9ImxpZ2h0Ymx1ZSIvPiYjeGE7PHRleHQgZm9udC1zaXplPSIxNC4wMCIgZm9udC1mYW1pbHk9IkhlbHZldGljYSxzYW5zLVNlcmlmIiB5PSItMzkuMyIgeD0iMTIyNSIgdGV4dC1hbmNob3I9Im1pZGRsZSI+QXVkaW9TZXJ2ZXI8L3RleHQ+JiN4YTs8L2c+JiN4YTsmI3hhOzxnIGNsYXNzPSJlZGdlIiBpZD0iZWRnZTI1Ij4mI3hhOzx0aXRsZT5BdWRpb01hbmFnZXItJmd0O0F1ZGlvU2VydmVyPC90aXRsZT4mI3hhOzxwYXRoIGQ9Ik0xMzM5LC04NjYuMzJDMTMzOSwtNjc2LjQyIDEzMzksLTQzIDEzMzksLTQzIDEzMzksLTQzIDEyODYuMzMsLTQzIDEyODYuMzMsLTQzIiBzdHJva2UtZGFzaGFycmF5PSIxLDUiIHN0cm9rZT0icmVkIiBmaWxsPSJub25lIi8+JiN4YTs8cG9seWdvbiBwb2ludHM9IjEyODYuMzMsLTM5LjUgMTI3Ni4zMywtNDMgMTI4Ni4zMywtNDYuNSAxMjg2LjMzLC0zOS41IiBzdHJva2U9InJlZCIgZmlsbD0icmVkIi8+JiN4YTs8dGV4dCBmb250LXNpemU9IjEwLjAwIiBmb250LWZhbWlseT0iSGVsdmV0aWNhLHNhbnMtU2VyaWYiIHk9Ii00MzAiIHg9IjIwMTkiIHRleHQtYW5jaG9yPSJtaWRkbGUiPlNldHMgQnVzIFZvbHVtZXM8L3RleHQ+JiN4YTs8L2c+JiN4YTsmI3hhOzxnIGNsYXNzPSJlZGdlIiBpZD0iZWRnZTI2Ij4mI3hhOzx0aXRsZT5BU1BfUG9vbC0mZ3Q7QXVkaW9Bc3NldHM8L3RpdGxlPiYjeGE7PHBhdGggZD0iTTEyOTMuNSwtNjkzLjM1QzEyOTMuNSwtNjkyLjUgMTI5My41LC02OTIgMTI5My41LC02OTIgMTI5My41LC02OTIgMTY5NS4yOSwtNjkyIDE2OTUuMjksLTY5MiIgc3Ryb2tlPSJibGFjayIgZmlsbD0ibm9uZSIvPiYjeGE7PHBvbHlnb24gcG9pbnRzPSIxNjk1LjI5LC02OTUuNSAxNzA1LjI5LC02OTIgMTY5NS4yOSwtNjg4LjUgMTY5NS4yOSwtNjk1LjUiIHN0cm9rZT0iYmxhY2siIGZpbGw9ImJsYWNrIi8+JiN4YTs8dGV4dCBmb250LXNpemU9IjEwLjAwIiBmb250LWZhbWlseT0iSGVsdmV0aWNhLHNhbnMtU2VyaWYiIHk9Ii04MDQiIHg9IjEzODgiIHRleHQtYW5jaG9yPSJtaWRkbGUiPlVzZXM8L3RleHQ+JiN4YTs8L2c+JiN4YTsmI3hhOzxnIGNsYXNzPSJub2RlIiBpZD0ibm9kZTIxIj4mI3hhOzx0aXRsZT5CdXNfVUk8L3RpdGxlPiYjeGE7PHBvbHlnb24gcG9pbnRzPSIxMjc3LC01MjggMTI3NCwtNTMyIDEyNTMsLTUzMiAxMjUwLC01MjggMTIyMywtNTI4IDEyMjMsLTQ5MiAxMjc3LC00OTIgMTI3NywtNTI4IiBzdHJva2U9ImJsYWNrIiBmaWxsPSJvcmFuZ2UiLz4mI3hhOzx0ZXh0IGZvbnQtc2l6ZT0iMTQuMDAiIGZvbnQtZmFtaWx5PSJIZWx2ZXRpY2Esc2Fucy1TZXJpZiIgeT0iLTUwNi4zIiB4PSIxMjUwIiB0ZXh0LWFuY2hvcj0ibWlkZGxlIj5VSTwvdGV4dD4mI3hhOzwvZz4mI3hhOyYjeGE7PGcgY2xhc3M9ImVkZ2UiIGlkPSJlZGdlMzIiPiYjeGE7PHRpdGxlPkFTUF9Qb29sLSZndDtCdXNfVUk8L3RpdGxlPiYjeGE7PHBhdGggZD0iTTEyNTAsLTY5My40NUMxMjUwLC02OTMuNDUgMTI1MCwtNTM4LjI3IDEyNTAsLTUzOC4yNyIgc3Ryb2tlLWRhc2hhcnJheT0iNSwyIiBzdHJva2U9ImJsdWUiIGZpbGw9Im5vbmUiLz4mI3hhOzxwb2x5Z29uIHBvaW50cz0iMTI1My41LC01MzguMjcgMTI1MCwtNTI4LjI3IDEyNDYuNSwtNTM4LjI3IDEyNTMuNSwtNTM4LjI3IiBzdHJva2U9ImJsdWUiIGZpbGw9ImJsdWUiLz4mI3hhOzx0ZXh0IGZvbnQtc2l6ZT0iMTAuMDAiIGZvbnQtZmFtaWx5PSJIZWx2ZXRpY2Esc2Fucy1TZXJpZiIgeT0iLTYyNCIgeD0iMTMyNy41IiB0ZXh0LWFuY2hvcj0ibWlkZGxlIj5VSSBTRlggU3RyZWFtPC90ZXh0PiYjeGE7PC9nPiYjeGE7JiN4YTs8ZyBjbGFzcz0iZWRnZSIgaWQ9ImVkZ2UyNyI+JiN4YTs8dGl0bGU+QVNQM0RfUG9vbC0mZ3Q7QXVkaW9Bc3NldHM8L3RpdGxlPiYjeGE7PHBhdGggZD0iTTk2MS41LC02OTMuM0M5NjEuNSwtNjkxLjg5IDk2MS41LC02OTEgOTYxLjUsLTY5MSA5NjEuNSwtNjkxIDE2OTUuMTEsLTY5MSAxNjk1LjExLC02OTEiIHN0cm9rZT0iYmxhY2siIGZpbGw9Im5vbmUiLz4mI3hhOzxwb2x5Z29uIHBvaW50cz0iMTY5NS4xMSwtNjk0LjUgMTcwNS4xMSwtNjkxIDE2OTUuMTEsLTY4Ny41IDE2OTUuMTEsLTY5NC41IiBzdHJva2U9ImJsYWNrIiBmaWxsPSJibGFjayIvPiYjeGE7PHRleHQgZm9udC1zaXplPSIxMC4wMCIgZm9udC1mYW1pbHk9IkhlbHZldGljYSxzYW5zLVNlcmlmIiB5PSItODA0IiB4PSIxMzU1IiB0ZXh0LWFuY2hvcj0ibWlkZGxlIj5Vc2VzPC90ZXh0PiYjeGE7PC9nPiYjeGE7JiN4YTs8ZyBjbGFzcz0ibm9kZSIgaWQ9Im5vZGUyMiI+JiN4YTs8dGl0bGU+QnVzX1BsYXllcjwvdGl0bGU+JiN4YTs8cG9seWdvbiBwb2ludHM9IjEwNTIuNSwtNTI4IDEwNDkuNSwtNTMyIDEwMjguNSwtNTMyIDEwMjUuNSwtNTI4IDk5My41LC01MjggOTkzLjUsLTQ5MiAxMDUyLjUsLTQ5MiAxMDUyLjUsLTUyOCIgc3Ryb2tlPSJibGFjayIgZmlsbD0ib3JhbmdlIi8+JiN4YTs8dGV4dCBmb250LXNpemU9IjE0LjAwIiBmb250LWZhbWlseT0iSGVsdmV0aWNhLHNhbnMtU2VyaWYiIHk9Ii01MDYuMyIgeD0iMTAyMyIgdGV4dC1hbmNob3I9Im1pZGRsZSI+UGxheWVyPC90ZXh0PiYjeGE7PC9nPiYjeGE7JiN4YTs8ZyBjbGFzcz0iZWRnZSIgaWQ9ImVkZ2UzNyI+JiN4YTs8dGl0bGU+QVNQM0RfUG9vbC0mZ3Q7QnVzX1BsYXllcjwvdGl0bGU+JiN4YTs8cGF0aCBkPSJNMTAyMC41LC02OTMuNDVDMTAyMC41LC02OTMuNDUgMTAyMC41LC01MzguMjcgMTAyMC41LC01MzguMjciIHN0cm9rZS1kYXNoYXJyYXk9IjUsMiIgc3Ryb2tlPSJibHVlIiBmaWxsPSJub25lIi8+JiN4YTs8cG9seWdvbiBwb2ludHM9IjEwMjQsLTUzOC4yNyAxMDIwLjUsLTUyOC4yNyAxMDE3LC01MzguMjcgMTAyNCwtNTM4LjI3IiBzdHJva2U9ImJsdWUiIGZpbGw9ImJsdWUiLz4mI3hhOzx0ZXh0IGZvbnQtc2l6ZT0iMTAuMDAiIGZvbnQtZmFtaWx5PSJIZWx2ZXRpY2Esc2Fucy1TZXJpZiIgeT0iLTYyNCIgeD0iMTA5OC41IiB0ZXh0LWFuY2hvcj0ibWlkZGxlIj5QbGF5ZXIgU0ZYPC90ZXh0PiYjeGE7PC9nPiYjeGE7JiN4YTs8ZyBjbGFzcz0ibm9kZSIgaWQ9Im5vZGUyMyI+JiN4YTs8dGl0bGU+QnVzX0JhbGw8L3RpdGxlPiYjeGE7PHBvbHlnb24gcG9pbnRzPSIxMTY1LC01MjggMTE2MiwtNTMyIDExNDEsLTUzMiAxMTM4LC01MjggMTExMSwtNTI4IDExMTEsLTQ5MiAxMTY1LC00OTIgMTE2NSwtNTI4IiBzdHJva2U9ImJsYWNrIiBmaWxsPSJvcmFuZ2UiLz4mI3hhOzx0ZXh0IGZvbnQtc2l6ZT0iMTQuMDAiIGZvbnQtZmFtaWx5PSJIZWx2ZXRpY2Esc2Fucy1TZXJpZiIgeT0iLTUwNi4zIiB4PSIxMTM4IiB0ZXh0LWFuY2hvcj0ibWlkZGxlIj5CYWxsPC90ZXh0PiYjeGE7PC9nPiYjeGE7JiN4YTs8ZyBjbGFzcz0iZWRnZSIgaWQ9ImVkZ2UzOCI+JiN4YTs8dGl0bGU+QVNQM0RfUG9vbC0mZ3Q7QnVzX0JhbGw8L3RpdGxlPiYjeGE7PHBhdGggZD0iTTEwMzQuMDcsLTcxMkMxMDU2Ljc5LC03MTIgMTA3NCwtNzEyIDEwNzQsLTcxMiAxMDc0LC03MTIgMTA3NCwtNTEwIDEwNzQsLTUxMCAxMDc0LC01MTAgMTEwMC44NiwtNTEwIDExMDAuODYsLTUxMCIgc3Ryb2tlLWRhc2hhcnJheT0iNSwyIiBzdHJva2U9ImJsdWUiIGZpbGw9Im5vbmUiLz4mI3hhOzxwb2x5Z29uIHBvaW50cz0iMTEwMC44NiwtNTEzLjUgMTExMC44NiwtNTEwIDExMDAuODYsLTUwNi41IDExMDAuODYsLTUxMy41IiBzdHJva2U9ImJsdWUiIGZpbGw9ImJsdWUiLz4mI3hhOzx0ZXh0IGZvbnQtc2l6ZT0iMTAuMDAiIGZvbnQtZmFtaWx5PSJIZWx2ZXRpY2Esc2Fucy1TZXJpZiIgeT0iLTYyNCIgeD0iMTIwOC41IiB0ZXh0LWFuY2hvcj0ibWlkZGxlIj5CYWxsIFNGWDwvdGV4dD4mI3hhOzwvZz4mI3hhOyYjeGE7PGcgY2xhc3M9Im5vZGUiIGlkPSJub2RlMjQiPiYjeGE7PHRpdGxlPkJ1c19BYmlsaXR5PC90aXRsZT4mI3hhOzxwb2x5Z29uIHBvaW50cz0iODIzLC01MjggODIwLC01MzIgNzk5LC01MzIgNzk2LC01MjggNzYzLC01MjggNzYzLC00OTIgODIzLC00OTIgODIzLC01MjgiIHN0cm9rZT0iYmxhY2siIGZpbGw9Im9yYW5nZSIvPiYjeGE7PHRleHQgZm9udC1zaXplPSIxNC4wMCIgZm9udC1mYW1pbHk9IkhlbHZldGljYSxzYW5zLVNlcmlmIiB5PSItNTA2LjMiIHg9Ijc5MyIgdGV4dC1hbmNob3I9Im1pZGRsZSI+QWJpbGl0eTwvdGV4dD4mI3hhOzwvZz4mI3hhOyYjeGE7PGcgY2xhc3M9ImVkZ2UiIGlkPSJlZGdlMzkiPiYjeGE7PHRpdGxlPkFTUDNEX1Bvb2wtJmd0O0J1c19BYmlsaXR5PC90aXRsZT4mI3hhOzxwYXRoIGQ9Ik04MTkuNSwtNjkzLjQ1QzgxOS41LC02OTMuNDUgODE5LjUsLTUzOC4yNyA4MTkuNSwtNTM4LjI3IiBzdHJva2UtZGFzaGFycmF5PSI1LDIiIHN0cm9rZT0iYmx1ZSIgZmlsbD0ibm9uZSIvPiYjeGE7PHBvbHlnb24gcG9pbnRzPSI4MjMsLTUzOC4yNyA4MTkuNSwtNTI4LjI3IDgxNiwtNTM4LjI3IDgyMywtNTM4LjI3IiBzdHJva2U9ImJsdWUiIGZpbGw9ImJsdWUiLz4mI3hhOzx0ZXh0IGZvbnQtc2l6ZT0iMTAuMDAiIGZvbnQtZmFtaWx5PSJIZWx2ZXRpY2Esc2Fucy1TZXJpZiIgeT0iLTYyNCIgeD0iNjU5IiB0ZXh0LWFuY2hvcj0ibWlkZGxlIj5BYmlsaXR5IFNGWDwvdGV4dD4mI3hhOzwvZz4mI3hhOyYjeGE7PGcgY2xhc3M9Im5vZGUiIGlkPSJub2RlMjUiPiYjeGE7PHRpdGxlPkJ1c19FbnY8L3RpdGxlPiYjeGE7PHBvbHlnb24gcG9pbnRzPSI5MzUsLTUyOCA5MzIsLTUzMiA5MTEsLTUzMiA5MDgsLTUyOCA4ODEsLTUyOCA4ODEsLTQ5MiA5MzUsLTQ5MiA5MzUsLTUyOCIgc3Ryb2tlPSJibGFjayIgZmlsbD0ib3JhbmdlIi8+JiN4YTs8dGV4dCBmb250LXNpemU9IjE0LjAwIiBmb250LWZhbWlseT0iSGVsdmV0aWNhLHNhbnMtU2VyaWYiIHk9Ii01MDYuMyIgeD0iOTA4IiB0ZXh0LWFuY2hvcj0ibWlkZGxlIj5FbnY8L3RleHQ+JiN4YTs8L2c+JiN4YTsmI3hhOzxnIGNsYXNzPSJlZGdlIiBpZD0iZWRnZTQwIj4mI3hhOzx0aXRsZT5BU1AzRF9Qb29sLSZndDtCdXNfRW52PC90aXRsZT4mI3hhOzxwYXRoIGQ9Ik05MTcsLTY5My40NUM5MTcsLTY5My40NSA5MTcsLTUzOC4yNyA5MTcsLTUzOC4yNyIgc3Ryb2tlLWRhc2hhcnJheT0iNSwyIiBzdHJva2U9ImJsdWUiIGZpbGw9Im5vbmUiLz4mI3hhOzxwb2x5Z29uIHBvaW50cz0iOTIwLjUsLTUzOC4yNyA5MTcsLTUyOC4yNyA5MTMuNSwtNTM4LjI3IDkyMC41LC01MzguMjciIHN0cm9rZT0iYmx1ZSIgZmlsbD0iYmx1ZSIvPiYjeGE7PHRleHQgZm9udC1zaXplPSIxMC4wMCIgZm9udC1mYW1pbHk9IkhlbHZldGljYSxzYW5zLVNlcmlmIiB5PSItNjI0IiB4PSI4ODUiIHRleHQtYW5jaG9yPSJtaWRkbGUiPkVudiBTRlg8L3RleHQ+JiN4YTs8L2c+JiN4YTsmI3hhOzxnIGNsYXNzPSJlZGdlIiBpZD0iZWRnZTI4Ij4mI3hhOzx0aXRsZT5BU1BfQXR0YWNoZWQtJmd0O0F1ZGlvQXNzZXRzPC90aXRsZT4mI3hhOzxwYXRoIGQ9Ik0xNTkwLjMyLC03MTJDMTU5MC4zMiwtNzEyIDE2OTUuMzUsLTcxMiAxNjk1LjM1LC03MTIiIHN0cm9rZT0iYmxhY2siIGZpbGw9Im5vbmUiLz4mI3hhOzxwb2x5Z29uIHBvaW50cz0iMTY5NS4zNSwtNzE1LjUgMTcwNS4zNSwtNzEyIDE2OTUuMzUsLTcwOC41IDE2OTUuMzUsLTcxNS41IiBzdHJva2U9ImJsYWNrIiBmaWxsPSJibGFjayIvPiYjeGE7PC9nPiYjeGE7JiN4YTs8ZyBjbGFzcz0ibm9kZSIgaWQ9Im5vZGUxOSI+JiN4YTs8dGl0bGU+QnVzX011c2ljPC90aXRsZT4mI3hhOzxwb2x5Z29uIHBvaW50cz0iMTI1MywtMzcyLjUgMTI1MCwtMzc2LjUgMTIyOSwtMzc2LjUgMTIyNiwtMzcyLjUgMTE5NywtMzcyLjUgMTE5NywtMzM2LjUgMTI1MywtMzM2LjUgMTI1MywtMzcyLjUiIHN0cm9rZT0iYmxhY2siIGZpbGw9Im9yYW5nZSIvPiYjeGE7PHRleHQgZm9udC1zaXplPSIxNC4wMCIgZm9udC1mYW1pbHk9IkhlbHZldGljYSxzYW5zLVNlcmlmIiB5PSItMzUwLjgiIHg9IjEyMjUiIHRleHQtYW5jaG9yPSJtaWRkbGUiPk11c2ljPC90ZXh0PiYjeGE7PC9nPiYjeGE7JiN4YTs8ZyBjbGFzcz0iZWRnZSIgaWQ9ImVkZ2UzMCI+JiN4YTs8dGl0bGU+QVNQX0F0dGFjaGVkLSZndDtCdXNfTXVzaWM8L3RpdGxlPiYjeGE7PHBhdGggZD0iTTE1MTYsLTY5My4yM0MxNTE2LC02MTguNzYgMTUxNiwtMzU0IDE1MTYsLTM1NCAxNTE2LC0zNTQgMTI2My4xNywtMzU0IDEyNjMuMTcsLTM1NCIgc3Ryb2tlLWRhc2hhcnJheT0iNSwyIiBzdHJva2U9ImJsdWUiIGZpbGw9Im5vbmUiLz4mI3hhOzxwb2x5Z29uIHBvaW50cz0iMTI2My4xNywtMzUwLjUgMTI1My4xNywtMzU0IDEyNjMuMTcsLTM1Ny41IDEyNjMuMTcsLTM1MC41IiBzdHJva2U9ImJsdWUiIGZpbGw9ImJsdWUiLz4mI3hhOzx0ZXh0IGZvbnQtc2l6ZT0iMTAuMDAiIGZvbnQtZmFtaWx5PSJIZWx2ZXRpY2Esc2Fucy1TZXJpZiIgeT0iLTUwNy41IiB4PSIxNTY1LjUiIHRleHQtYW5jaG9yPSJtaWRkbGUiPk11c2ljIFN0cmVhbTwvdGV4dD4mI3hhOzwvZz4mI3hhOyYjeGE7PGcgY2xhc3M9ImVkZ2UiIGlkPSJlZGdlMzEiPiYjeGE7PHRpdGxlPkFTUF9BdHRhY2hlZC0mZ3Q7QnVzX1VJPC90aXRsZT4mI3hhOzxwYXRoIGQ9Ik0xNDQyLC02OTMuNDVDMTQ0MiwtNjQzLjA0IDE0NDIsLTUxMCAxNDQyLC01MTAgMTQ0MiwtNTEwIDEyODcuMSwtNTEwIDEyODcuMSwtNTEwIiBzdHJva2UtZGFzaGFycmF5PSI1LDIiIHN0cm9rZT0iYmx1ZSIgZmlsbD0ibm9uZSIvPiYjeGE7PHBvbHlnb24gcG9pbnRzPSIxMjg3LjEsLTUwNi41IDEyNzcuMSwtNTEwIDEyODcuMSwtNTEzLjUgMTI4Ny4xLC01MDYuNSIgc3Ryb2tlPSJibHVlIiBmaWxsPSJibHVlIi8+JiN4YTs8dGV4dCBmb250LXNpemU9IjEwLjAwIiBmb250LWZhbWlseT0iSGVsdmV0aWNhLHNhbnMtU2VyaWYiIHk9Ii02MjQiIHg9IjE0NjEuNSIgdGV4dC1hbmNob3I9Im1pZGRsZSI+VUkgU0ZYIFN0cmVhbTwvdGV4dD4mI3hhOzwvZz4mI3hhOyYjeGE7PGcgY2xhc3M9ImVkZ2UiIGlkPSJlZGdlMjkiPiYjeGE7PHRpdGxlPkFTUDNEX0F0dGFjaGVkLSZndDtBdWRpb0Fzc2V0czwvdGl0bGU+JiN4YTs8cGF0aCBkPSJNNTk2LjY3LC03MzEuN0M1OTYuNjcsLTczMy4xMSA1OTYuNjcsLTczNCA1OTYuNjcsLTczNCA1OTYuNjcsLTczNCAxNjk1LjM2LC03MzQgMTY5NS4zNiwtNzM0IiBzdHJva2U9ImJsYWNrIiBmaWxsPSJub25lIi8+JiN4YTs8cG9seWdvbiBwb2ludHM9IjE2OTUuMzYsLTczNy41IDE3MDUuMzYsLTczNCAxNjk1LjM2LC03MzAuNSAxNjk1LjM2LC03MzcuNSIgc3Ryb2tlPSJibGFjayIgZmlsbD0iYmxhY2siLz4mI3hhOzx0ZXh0IGZvbnQtc2l6ZT0iMTAuMDAiIGZvbnQtZmFtaWx5PSJIZWx2ZXRpY2Esc2Fucy1TZXJpZiIgeT0iLTgwNCIgeD0iMTI4NiIgdGV4dC1hbmNob3I9Im1pZGRsZSI+VXNlczwvdGV4dD4mI3hhOzwvZz4mI3hhOyYjeGE7PGcgY2xhc3M9ImVkZ2UiIGlkPSJlZGdlMzMiPiYjeGE7PHRpdGxlPkFTUDNEX0F0dGFjaGVkLSZndDtCdXNfUGxheWVyPC90aXRsZT4mI3hhOzxwYXRoIGQ9Ik02MzcsLTY5My4yQzYzNywtNjkwLjE2IDYzNywtNjg4IDYzNywtNjg4IDYzNywtNjg4IDEwMDcsLTY4OCAxMDA3LC02ODggMTAwNywtNjg4IDEwMDcsLTUzOC4wNSAxMDA3LC01MzguMDUiIHN0cm9rZS1kYXNoYXJyYXk9IjUsMiIgc3Ryb2tlPSJibHVlIiBmaWxsPSJub25lIi8+JiN4YTs8cG9seWdvbiBwb2ludHM9IjEwMTAuNSwtNTM4LjA1IDEwMDcsLTUyOC4wNSAxMDAzLjUsLTUzOC4wNSAxMDEwLjUsLTUzOC4wNSIgc3Ryb2tlPSJibHVlIiBmaWxsPSJibHVlIi8+JiN4YTs8dGV4dCBmb250LXNpemU9IjEwLjAwIiBmb250LWZhbWlseT0iSGVsdmV0aWNhLHNhbnMtU2VyaWYiIHk9Ii02MjQiIHg9Ijc3NS41IiB0ZXh0LWFuY2hvcj0ibWlkZGxlIj5QbGF5ZXIgU0ZYPC90ZXh0PiYjeGE7PC9nPiYjeGE7JiN4YTs8ZyBjbGFzcz0iZWRnZSIgaWQ9ImVkZ2UzNCI+JiN4YTs8dGl0bGU+QVNQM0RfQXR0YWNoZWQtJmd0O0J1c19CYWxsPC90aXRsZT4mI3hhOzxwYXRoIGQ9Ik02OTcuNSwtNjkzLjA5QzY5Ny41LC02OTAuNjYgNjk3LjUsLTY4OSA2OTcuNSwtNjg5IDY5Ny41LC02ODkgMTEzOCwtNjg5IDExMzgsLTY4OSAxMTM4LC02ODkgMTEzOCwtNTM4LjE1IDExMzgsLTUzOC4xNSIgc3Ryb2tlLWRhc2hhcnJheT0iNSwyIiBzdHJva2U9ImJsdWUiIGZpbGw9Im5vbmUiLz4mI3hhOzxwb2x5Z29uIHBvaW50cz0iMTE0MS41LC01MzguMTUgMTEzOCwtNTI4LjE1IDExMzQuNSwtNTM4LjE1IDExNDEuNSwtNTM4LjE1IiBzdHJva2U9ImJsdWUiIGZpbGw9ImJsdWUiLz4mI3hhOzx0ZXh0IGZvbnQtc2l6ZT0iMTAuMDAiIGZvbnQtZmFtaWx5PSJIZWx2ZXRpY2Esc2Fucy1TZXJpZiIgeT0iLTYyNCIgeD0iOTg4LjUiIHRleHQtYW5jaG9yPSJtaWRkbGUiPkJhbGwgU0ZYPC90ZXh0PiYjeGE7PC9nPiYjeGE7JiN4YTs8ZyBjbGFzcz0iZWRnZSIgaWQ9ImVkZ2UzNSI+JiN4YTs8dGl0bGU+QVNQM0RfQXR0YWNoZWQtJmd0O0J1c19BYmlsaXR5PC90aXRsZT4mI3hhOzxwYXRoIGQ9Ik03NTguMjcsLTcxMkM3NzYuNTgsLTcxMiA3ODkuNSwtNzEyIDc4OS41LC03MTIgNzg5LjUsLTcxMiA3ODkuNSwtNTM4LjI4IDc4OS41LC01MzguMjgiIHN0cm9rZS1kYXNoYXJyYXk9IjUsMiIgc3Ryb2tlPSJibHVlIiBmaWxsPSJub25lIi8+JiN4YTs8cG9seWdvbiBwb2ludHM9Ijc5MywtNTM4LjI4IDc4OS41LC01MjguMjggNzg2LC01MzguMjggNzkzLC01MzguMjgiIHN0cm9rZT0iYmx1ZSIgZmlsbD0iYmx1ZSIvPiYjeGE7PHRleHQgZm9udC1zaXplPSIxMC4wMCIgZm9udC1mYW1pbHk9IkhlbHZldGljYSxzYW5zLVNlcmlmIiB5PSItNjI0IiB4PSI0MzkiIHRleHQtYW5jaG9yPSJtaWRkbGUiPkFiaWxpdHkgU0ZYPC90ZXh0PiYjeGE7PC9nPiYjeGE7JiN4YTs8ZyBjbGFzcz0iZWRnZSIgaWQ9ImVkZ2UzNiI+JiN4YTs8dGl0bGU+QVNQM0RfQXR0YWNoZWQtJmd0O0J1c19FbnY8L3RpdGxlPiYjeGE7PHBhdGggZD0iTTU3Ni41LC02OTMuNDNDNTc2LjUsLTY4OS43NSA1NzYuNSwtNjg3IDU3Ni41LC02ODcgNTc2LjUsLTY4NyA4OTksLTY4NyA4OTksLTY4NyA4OTksLTY4NyA4OTksLTUzOC4yOCA4OTksLTUzOC4yOCIgc3Ryb2tlLWRhc2hhcnJheT0iNSwyIiBzdHJva2U9ImJsdWUiIGZpbGw9Im5vbmUiLz4mI3hhOzxwb2x5Z29uIHBvaW50cz0iOTAyLjUsLTUzOC4yOCA4OTksLTUyOC4yOCA4OTUuNSwtNTM4LjI4IDkwMi41LC01MzguMjgiIHN0cm9rZT0iYmx1ZSIgZmlsbD0iYmx1ZSIvPiYjeGE7PHRleHQgZm9udC1zaXplPSIxMC4wMCIgZm9udC1mYW1pbHk9IkhlbHZldGljYSxzYW5zLVNlcmlmIiB5PSItNjI0IiB4PSI1NDkiIHRleHQtYW5jaG9yPSJtaWRkbGUiPkVudiBTRlg8L3RleHQ+JiN4YTs8L2c+JiN4YTsmI3hhOzxnIGNsYXNzPSJub2RlIiBpZD0ibm9kZTE4Ij4mI3hhOzx0aXRsZT5CdXNfTWFzdGVyPC90aXRsZT4mI3hhOzxwb2x5Z29uIHBvaW50cz0iMTIwMSwtMjE3IDExOTgsLTIyMSAxMTc3LC0yMjEgMTE3NCwtMjE3IDExMzcsLTIxNyAxMTM3LC0xODEgMTIwMSwtMTgxIDEyMDEsLTIxNyIgc3Ryb2tlPSJibGFjayIgZmlsbD0ib3JhbmdlIi8+JiN4YTs8dGV4dCBmb250LXNpemU9IjE0LjAwIiBmb250LWZhbWlseT0iSGVsdmV0aWNhLHNhbnMtU2VyaWYiIHk9Ii0xOTUuMyIgeD0iMTE2OSIgdGV4dC1hbmNob3I9Im1pZGRsZSI+TWFzdGVyPC90ZXh0PiYjeGE7PC9nPiYjeGE7JiN4YTs8ZyBjbGFzcz0iZWRnZSIgaWQ9ImVkZ2UxNCI+JiN4YTs8dGl0bGU+QnVzX01hc3Rlci0mZ3Q7QXVkaW9TZXJ2ZXI8L3RpdGxlPiYjeGE7PHBhdGggZD0iTTExODcuNSwtMTgwLjhDMTE4Ny41LC0xODAuOCAxMTg3LjUsLTcxLjA4IDExODcuNSwtNzEuMDgiIHN0cm9rZS1kYXNoYXJyYXk9IjUsMiIgc3Ryb2tlPSJibHVlIiBmaWxsPSJub25lIi8+JiN4YTs8cG9seWdvbiBwb2ludHM9IjExOTEsLTcxLjA4IDExODcuNSwtNjEuMDggMTE4NCwtNzEuMDggMTE5MSwtNzEuMDgiIHN0cm9rZT0iYmx1ZSIgZmlsbD0iYmx1ZSIvPiYjeGE7PHRleHQgZm9udC1zaXplPSIxMC4wMCIgZm9udC1mYW1pbHk9IkhlbHZldGljYSxzYW5zLVNlcmlmIiB5PSItMTE5IiB4PSIxMjMyLjUiIHRleHQtYW5jaG9yPSJtaWRkbGUiPk91dHB1dCB0byBEZXZpY2U8L3RleHQ+JiN4YTs8L2c+JiN4YTsmI3hhOzxnIGNsYXNzPSJub2RlIiBpZD0ibm9kZTI2Ij4mI3hhOzx0aXRsZT5CdXNfRWZmZWN0czwvdGl0bGU+JiN4YTs8cG9seWdvbiBwb2ludHM9IjExMDAuNSwtNTYgOTQ1LjUsLTU2IDk0NS41LC0zMCAxMTAwLjUsLTMwIDExMTIuNSwtNDMgMTEwMC41LC01NiIgc3Ryb2tlPSJibGFjayIgZmlsbD0ibGlnaHRncmV5Ii8+JiN4YTs8dGV4dCBmb250LXNpemU9IjE0LjAwIiBmb250LWZhbWlseT0iSGVsdmV0aWNhLHNhbnMtU2VyaWYiIHk9Ii00Ni44IiB4PSIxMDI5IiB0ZXh0LWFuY2hvcj0ibWlkZGxlIj5BdWRpbyBFZmZlY3RzPC90ZXh0PiYjeGE7PHRleHQgZm9udC1zaXplPSIxNC4wMCIgZm9udC1mYW1pbHk9IkhlbHZldGljYSxzYW5zLVNlcmlmIiB5PSItMzEuOCIgeD0iMTAyOSIgdGV4dC1hbmNob3I9Im1pZGRsZSI+KFJldmVyYiwgTGltaXRlciwgZXRjLik8L3RleHQ+JiN4YTs8L2c+JiN4YTsmI3hhOzxnIGNsYXNzPSJlZGdlIiBpZD0iZWRnZTE1Ij4mI3hhOzx0aXRsZT5CdXNfTWFzdGVyLSZndDtCdXNfRWZmZWN0czwvdGl0bGU+JiN4YTs8cGF0aCBkPSJNMTEzNi44MywtMTk5QzExMTkuNDUsLTE5OSAxMTAxLjUsLTE5OSAxMTAxLjUsLTE5OSAxMTAxLjUsLTE5OSAxMTAxLjUsLTcyLjEzIDExMDEuNSwtNzIuMTMiIHN0cm9rZS1kYXNoYXJyYXk9IjEsNSIgc3Ryb2tlPSJncmV5IiBmaWxsPSJub25lIi8+JiN4YTs8cG9seWdvbiBwb2ludHM9IjExMDUsLTcyLjEzIDExMDEuNSwtNjIuMTMgMTA5OCwtNzIuMTMgMTEwNSwtNzIuMTMiIHN0cm9rZT0iZ3JleSIgZmlsbD0iZ3JleSIvPiYjeGE7PHRleHQgZm9udC1zaXplPSIxMC4wMCIgZm9udC1mYW1pbHk9IkhlbHZldGljYSxzYW5zLVNlcmlmIiB5PSItMTE5IiB4PSIxMTEyIiB0ZXh0LWFuY2hvcj0ibWlkZGxlIj5hcHBseTwvdGV4dD4mI3hhOzwvZz4mI3hhOyYjeGE7PGcgY2xhc3M9ImVkZ2UiIGlkPSJlZGdlMTMiPiYjeGE7PHRpdGxlPkJ1c19NdXNpYy0mZ3Q7QnVzX01hc3RlcjwvdGl0bGU+JiN4YTs8cGF0aCBkPSJNMTE5Ni45LC0zNDNDMTE5MC45LC0zNDMgMTE4Ni4zMywtMzQzIDExODYuMzMsLTM0MyAxMTg2LjMzLC0zNDMgMTE4Ni4zMywtMjI3LjI0IDExODYuMzMsLTIyNy4yNCIgc3Ryb2tlLWRhc2hhcnJheT0iNSwyIiBzdHJva2U9ImJsdWUiIGZpbGw9Im5vbmUiLz4mI3hhOzxwb2x5Z29uIHBvaW50cz0iMTE4OS44MywtMjI3LjI0IDExODYuMzMsLTIxNy4yNCAxMTgyLjgzLC0yMjcuMjQgMTE4OS44MywtMjI3LjI0IiBzdHJva2U9ImJsdWUiIGZpbGw9ImJsdWUiLz4mI3hhOzwvZz4mI3hhOyYjeGE7PGcgY2xhc3M9Im5vZGUiIGlkPSJub2RlMjAiPiYjeGE7PHRpdGxlPkJ1c19TRlg8L3RpdGxlPiYjeGE7PHBvbHlnb24gcG9pbnRzPSIxMDU2LC0zNzIuNSAxMDUzLC0zNzYuNSAxMDMyLC0zNzYuNSAxMDI5LC0zNzIuNSAxMDAyLC0zNzIuNSAxMDAyLC0zMzYuNSAxMDU2LC0zMzYuNSAxMDU2LC0zNzIuNSIgc3Ryb2tlPSJibGFjayIgZmlsbD0ib3JhbmdlIi8+JiN4YTs8dGV4dCBmb250LXNpemU9IjE0LjAwIiBmb250LWZhbWlseT0iSGVsdmV0aWNhLHNhbnMtU2VyaWYiIHk9Ii0zNTAuOCIgeD0iMTAyOSIgdGV4dC1hbmNob3I9Im1pZGRsZSI+U0ZYPC90ZXh0PiYjeGE7PC9nPiYjeGE7JiN4YTs8ZyBjbGFzcz0iZWRnZSIgaWQ9ImVkZ2UxMiI+JiN4YTs8dGl0bGU+QnVzX1NGWC0mZ3Q7QnVzX01hc3RlcjwvdGl0bGU+JiN4YTs8cGF0aCBkPSJNMTA1Ni4wOCwtMzUwQzEwOTIuMDIsLTM1MCAxMTUxLC0zNTAgMTE1MSwtMzUwIDExNTEsLTM1MCAxMTUxLC0yMjcuMjEgMTE1MSwtMjI3LjIxIiBzdHJva2UtZGFzaGFycmF5PSI1LDIiIHN0cm9rZT0iYmx1ZSIgZmlsbD0ibm9uZSIvPiYjeGE7PHBvbHlnb24gcG9pbnRzPSIxMTU0LjUsLTIyNy4yMSAxMTUxLC0yMTcuMjEgMTE0Ny41LC0yMjcuMjEgMTE1NC41LC0yMjcuMjEiIHN0cm9rZT0iYmx1ZSIgZmlsbD0iYmx1ZSIvPiYjeGE7PC9nPiYjeGE7JiN4YTs8ZyBjbGFzcz0iZWRnZSIgaWQ9ImVkZ2UxNiI+JiN4YTs8dGl0bGU+QnVzX1NGWC0mZ3Q7QnVzX0VmZmVjdHM8L3RpdGxlPiYjeGE7PHBhdGggZD0iTTEwMjksLTMzNi40MUMxMDI5LC0zMzYuNDEgMTAyOSwtNzIuMzMgMTAyOSwtNzIuMzMiIHN0cm9rZS1kYXNoYXJyYXk9IjEsNSIgc3Ryb2tlPSJncmV5IiBmaWxsPSJub25lIi8+JiN4YTs8cG9seWdvbiBwb2ludHM9IjEwMzIuNSwtNzIuMzMgMTAyOSwtNjIuMzMgMTAyNS41LC03Mi4zMyAxMDMyLjUsLTcyLjMzIiBzdHJva2U9ImdyZXkiIGZpbGw9ImdyZXkiLz4mI3hhOzx0ZXh0IGZvbnQtc2l6ZT0iMTAuMDAiIGZvbnQtZmFtaWx5PSJIZWx2ZXRpY2Esc2Fucy1TZXJpZiIgeT0iLTE5Ni41IiB4PSIxMDQzIiB0ZXh0LWFuY2hvcj0ibWlkZGxlIj5hcHBseTwvdGV4dD4mI3hhOzwvZz4mI3hhOyYjeGE7PGcgY2xhc3M9ImVkZ2UiIGlkPSJlZGdlNyI+JiN4YTs8dGl0bGU+QnVzX1VJLSZndDtCdXNfU0ZYPC90aXRsZT4mI3hhOzxwYXRoIGQ9Ik0xMjIyLjc0LC01MTBDMTIwMS41MywtNTEwIDExNzUuNjcsLTUxMCAxMTc1LjY3LC01MTAgMTE3NS42NywtNTEwIDExNzUuNjcsLTM1OCAxMTc1LjY3LC0zNTggMTE3NS42NywtMzU4IDEwNjYuMjQsLTM1OCAxMDY2LjI0LC0zNTgiIHN0cm9rZS1kYXNoYXJyYXk9IjUsMiIgc3Ryb2tlPSJibHVlIiBmaWxsPSJub25lIi8+JiN4YTs8cG9seWdvbiBwb2ludHM9IjEwNjYuMjQsLTM1NC41IDEwNTYuMjQsLTM1OCAxMDY2LjI0LC0zNjEuNSAxMDY2LjI0LC0zNTQuNSIgc3Ryb2tlPSJibHVlIiBmaWxsPSJibHVlIi8+JiN4YTs8L2c+JiN4YTsmI3hhOzxnIGNsYXNzPSJlZGdlIiBpZD0iZWRnZTgiPiYjeGE7PHRpdGxlPkJ1c19QbGF5ZXItJmd0O0J1c19TRlg8L3RpdGxlPiYjeGE7PHBhdGggZD0iTTEwMjcuMjUsLTQ5MS44NkMxMDI3LjI1LC00OTEuODYgMTAyNy4yNSwtMzgyLjUzIDEwMjcuMjUsLTM4Mi41MyIgc3Ryb2tlLWRhc2hhcnJheT0iNSwyIiBzdHJva2U9ImJsdWUiIGZpbGw9Im5vbmUiLz4mI3hhOzxwb2x5Z29uIHBvaW50cz0iMTAzMC43NSwtMzgyLjUzIDEwMjcuMjUsLTM3Mi41MyAxMDIzLjc1LC0zODIuNTMgMTAzMC43NSwtMzgyLjUzIiBzdHJva2U9ImJsdWUiIGZpbGw9ImJsdWUiLz4mI3hhOzwvZz4mI3hhOyYjeGE7PGcgY2xhc3M9ImVkZ2UiIGlkPSJlZGdlOSI+JiN4YTs8dGl0bGU+QnVzX0JhbGwtJmd0O0J1c19TRlg8L3RpdGxlPiYjeGE7PHBhdGggZD0iTTExMjQuNzUsLTQ5MS45M0MxMTI0Ljc1LC00NTMuMDYgMTEyNC43NSwtMzY1IDExMjQuNzUsLTM2NSAxMTI0Ljc1LC0zNjUgMTA2Ni4xOCwtMzY1IDEwNjYuMTgsLTM2NSIgc3Ryb2tlLWRhc2hhcnJheT0iNSwyIiBzdHJva2U9ImJsdWUiIGZpbGw9Im5vbmUiLz4mI3hhOzxwb2x5Z29uIHBvaW50cz0iMTA2Ni4xOCwtMzYxLjUgMTA1Ni4xOCwtMzY1IDEwNjYuMTgsLTM2OC41IDEwNjYuMTgsLTM2MS41IiBzdHJva2U9ImJsdWUiIGZpbGw9ImJsdWUiLz4mI3hhOzwvZz4mI3hhOyYjeGE7PGcgY2xhc3M9ImVkZ2UiIGlkPSJlZGdlMTAiPiYjeGE7PHRpdGxlPkJ1c19BYmlsaXR5LSZndDtCdXNfU0ZYPC90aXRsZT4mI3hhOzxwYXRoIGQ9Ik03OTMsLTQ5MS43M0M3OTMsLTQ0OS4zNiA3OTMsLTM0OCA3OTMsLTM0OCA3OTMsLTM0OCA5OTEuOTMsLTM0OCA5OTEuOTMsLTM0OCIgc3Ryb2tlLWRhc2hhcnJheT0iNSwyIiBzdHJva2U9ImJsdWUiIGZpbGw9Im5vbmUiLz4mI3hhOzxwb2x5Z29uIHBvaW50cz0iOTkxLjkzLC0zNTEuNSAxMDAxLjkzLC0zNDggOTkxLjkzLC0zNDQuNSA5OTEuOTMsLTM1MS41IiBzdHJva2U9ImJsdWUiIGZpbGw9ImJsdWUiLz4mI3hhOzwvZz4mI3hhOyYjeGE7PGcgY2xhc3M9ImVkZ2UiIGlkPSJlZGdlMTEiPiYjeGE7PHRpdGxlPkJ1c19FbnYtJmd0O0J1c19TRlg8L3RpdGxlPiYjeGE7PHBhdGggZD0iTTkwOCwtNDkxLjkxQzkwOCwtNDUyLjAxIDkwOCwtMzYwIDkwOCwtMzYwIDkwOCwtMzYwIDk5MS44NSwtMzYwIDk5MS44NSwtMzYwIiBzdHJva2UtZGFzaGFycmF5PSI1LDIiIHN0cm9rZT0iYmx1ZSIgZmlsbD0ibm9uZSIvPiYjeGE7PHBvbHlnb24gcG9pbnRzPSI5OTEuODUsLTM2My41IDEwMDEuODUsLTM2MCA5OTEuODUsLTM1Ni41IDk5MS44NSwtMzYzLjUiIHN0cm9rZT0iYmx1ZSIgZmlsbD0iYmx1ZSIvPiYjeGE7PC9nPiYjeGE7JiN4YTs8ZyBjbGFzcz0iZWRnZSIgaWQ9ImVkZ2UxNyI+JiN4YTs8dGl0bGU+QnVzX0Vudi0mZ3Q7QnVzX0VmZmVjdHM8L3RpdGxlPiYjeGE7PHBhdGggZD0iTTkzNS4wNywtNTEwQzk1NC41OCwtNTEwIDk3Ny41LC01MTAgOTc3LjUsLTUxMCA5NzcuNSwtNTEwIDk3Ny41LC03Mi4xOCA5NzcuNSwtNzIuMTgiIHN0cm9rZS1kYXNoYXJyYXk9IjEsNSIgc3Ryb2tlPSJncmV5IiBmaWxsPSJub25lIi8+JiN4YTs8cG9seWdvbiBwb2ludHM9Ijk4MSwtNzIuMTggOTc3LjUsLTYyLjE4IDk3NCwtNzIuMTggOTgxLC03Mi4xOCIgc3Ryb2tlPSJncmV5IiBmaWxsPSJncmV5Ii8+JiN4YTs8dGV4dCBmb250LXNpemU9IjEwLjAwIiBmb250LWZhbWlseT0iSGVsdmV0aWNhLHNhbnMtU2VyaWYiIHk9Ii0yNzQiIHg9IjkyNCIgdGV4dC1hbmNob3I9Im1pZGRsZSI+YXBwbHk8L3RleHQ+JiN4YTs8L2c+JiN4YTs8L2c+JiN4YTs8L3N2Zz4=;" parent="1" vertex="1">
          <mxGeometry width="1200" height="700" as="geometry" />
        </mxCell>
        <mxCell id="1LJjbIT1Azwpbzh5bC0V-1" value="" style="shape=image;verticalLabelPosition=bottom;labelBackgroundColor=default;verticalAlign=top;aspect=fixed;imageAspect=0;editableCssRules=.*;image=data:image/svg+xml,PHN2ZyB4bWxuczp4bGluaz0iaHR0cDovL3d3dy53My5vcmcvMTk5OS94bGluayIgeG1sbnM9Imh0dHA6Ly93d3cudzMub3JnLzIwMDAvc3ZnIiB2aWV3Qm94PSIwIDAgMjA3MSAxMjA4IiBoZWlnaHQ9IjEyMDgiIHdpZHRoPSIyMDcxIj4mI3hhOzxnIHRyYW5zZm9ybT0ic2NhbGUoMSAxKSByb3RhdGUoMCkgdHJhbnNsYXRlKDQgMTIwNCkiIGNsYXNzPSJncmFwaCIgaWQ9ImdyYXBoMCI+JiN4YTs8dGl0bGU+U291bmRTeXN0ZW1BcmNoaXRlY3R1cmU8L3RpdGxlPiYjeGE7PHBvbHlnb24gcG9pbnRzPSItNCw0IC00LC0xMjA0IDIwNjcsLTEyMDQgMjA2Nyw0IC00LDQiIHN0cm9rZT0idHJhbnNwYXJlbnQiIGZpbGw9IndoaXRlIi8+JiN4YTs8ZyBjbGFzcz0iY2x1c3RlciIgaWQ9ImNsdXN0MSI+JiN4YTs8dGl0bGU+Y2x1c3Rlcl9rZXk8L3RpdGxlPiYjeGE7PHBvbHlnb24gcG9pbnRzPSI4LC0zMjggOCwtMTE5MSAzNDYsLTExOTEgMzQ2LC0zMjggOCwtMzI4IiBzdHJva2U9ImJsYWNrIiBmaWxsPSJpdm9yeSIvPiYjeGE7PHRleHQgZm9udC1zaXplPSIxNC4wMCIgZm9udC1mYW1pbHk9IlRpbWVzLHNlcmlmIiB5PSItMTE3NS44IiB4PSIxNzciIHRleHQtYW5jaG9yPSJtaWRkbGUiPktleTwvdGV4dD4mI3hhOzwvZz4mI3hhOzxnIGNsYXNzPSJjbHVzdGVyIiBpZD0iY2x1c3QyIj4mI3hhOzx0aXRsZT5jbHVzdGVyX2dhbWVwbGF5PC90aXRsZT4mI3hhOzxwb2x5Z29uIHBvaW50cz0iMTEwOSwtMTA5MiAxMTA5LC0xMTkyIDE1MTMsLTExOTIgMTUxMywtMTA5MiAxMTA5LC0xMDkyIiBzdHJva2U9ImJsYWNrIiBmaWxsPSJhbGljZWJsdWUiLz4mI3hhOzx0ZXh0IGZvbnQtc2l6ZT0iMTQuMDAiIGZvbnQtZmFtaWx5PSJUaW1lcyxzZXJpZiIgeT0iLTExNzYuOCIgeD0iMTMxMSIgdGV4dC1hbmNob3I9Im1pZGRsZSI+R2FtZXBsYXkgTGF5ZXI8L3RleHQ+JiN4YTs8L2c+JiN4YTs8ZyBjbGFzcz0iY2x1c3RlciIgaWQ9ImNsdXN0MyI+JiN4YTs8dGl0bGU+Y2x1c3Rlcl9hdWRpb21hbmFnZXI8L3RpdGxlPiYjeGE7PHBvbHlnb24gcG9pbnRzPSIxMjMyLC04NTggMTIzMiwtMTAyNyAxNDQyLC0xMDI3IDE0NDIsLTg1OCAxMjMyLC04NTgiIHN0cm9rZT0iYmxhY2siIGZpbGw9Im1pc3R5cm9zZSIvPiYjeGE7PHRleHQgZm9udC1zaXplPSIxNC4wMCIgZm9udC1mYW1pbHk9IlRpbWVzLHNlcmlmIiB5PSItMTAxMS44IiB4PSIxMzM3IiB0ZXh0LWFuY2hvcj0ibWlkZGxlIj5BdWRpbyBNYW5hZ2VtZW50PC90ZXh0PiYjeGE7PC9nPiYjeGE7PGcgY2xhc3M9ImNsdXN0ZXIiIGlkPSJjbHVzdDQiPiYjeGE7PHRpdGxlPmNsdXN0ZXJfcGxheWJhY2s8L3RpdGxlPiYjeGE7PHBvbHlnb24gcG9pbnRzPSI1MDgsLTY4NS41IDUwOCwtNzg1LjUgMTU5OCwtNzg1LjUgMTU5OCwtNjg1LjUgNTA4LC02ODUuNSIgc3Ryb2tlPSJibGFjayIgZmlsbD0ibGlnaHRjeWFuIi8+JiN4YTs8dGV4dCBmb250LXNpemU9IjE0LjAwIiBmb250LWZhbWlseT0iVGltZXMsc2VyaWYiIHk9Ii03NzAuMyIgeD0iMTA1MyIgdGV4dC1hbmNob3I9Im1pZGRsZSI+UGxheWJhY2sgTm9kZXM8L3RleHQ+JiN4YTs8L2c+JiN4YTs8ZyBjbGFzcz0iY2x1c3RlciIgaWQ9ImNsdXN0NSI+JiN4YTs8dGl0bGU+Y2x1c3Rlcl9hc3NldHM8L3RpdGxlPiYjeGE7PHBvbHlnb24gcG9pbnRzPSIxNjk3LC02NzggMTY5NywtNzkzIDE4OTUsLTc5MyAxODk1LC02NzggMTY5NywtNjc4IiBzdHJva2U9ImJsYWNrIiBmaWxsPSJsZW1vbmNoaWZmb24iLz4mI3hhOzx0ZXh0IGZvbnQtc2l6ZT0iMTQuMDAiIGZvbnQtZmFtaWx5PSJUaW1lcyxzZXJpZiIgeT0iLTc3Ny44IiB4PSIxNzk2IiB0ZXh0LWFuY2hvcj0ibWlkZGxlIj5BdWRpbyBBc3NldHM8L3RleHQ+JiN4YTs8L2c+JiN4YTs8ZyBjbGFzcz0iY2x1c3RlciIgaWQ9ImNsdXN0NiI+JiN4YTs8dGl0bGU+Y2x1c3Rlcl9nb2RvdF9hdWRpbzwvdGl0bGU+JiN4YTs8cG9seWdvbiBwb2ludHM9Ijc0NywtOCA3NDcsLTYxMyAxMjkzLC02MTMgMTI5MywtOCA3NDcsLTgiIHN0cm9rZT0iYmxhY2siIGZpbGw9ImhvbmV5ZGV3Ii8+JiN4YTs8dGV4dCBmb250LXNpemU9IjE0LjAwIiBmb250LWZhbWlseT0iVGltZXMsc2VyaWYiIHk9Ii01OTcuOCIgeD0iMTAyMCIgdGV4dC1hbmNob3I9Im1pZGRsZSI+R29kb3QgQXVkaW8gRW5naW5lPC90ZXh0PiYjeGE7PC9nPiYjeGE7PGcgY2xhc3M9ImNsdXN0ZXIiIGlkPSJjbHVzdDciPiYjeGE7PHRpdGxlPmNsdXN0ZXJfYnVzZXM8L3RpdGxlPiYjeGE7PHBvbHlnb24gcG9pbnRzPSI3NTUsLTE2IDc1NSwtNTgyIDEyODUsLTU4MiAxMjg1LC0xNiA3NTUsLTE2IiBzdHJva2U9ImJsYWNrIiBmaWxsPSJwZWFjaHB1ZmYiLz4mI3hhOzx0ZXh0IGZvbnQtc2l6ZT0iMTQuMDAiIGZvbnQtZmFtaWx5PSJUaW1lcyxzZXJpZiIgeT0iLTU2Ni44IiB4PSIxMDIwIiB0ZXh0LWFuY2hvcj0ibWlkZGxlIj5BdWRpbyBCdXNlczwvdGV4dD4mI3hhOzwvZz4mI3hhOyYjeGE7PGcgY2xhc3M9Im5vZGUiIGlkPSJub2RlMSI+JiN4YTs8dGl0bGU+S2V5X0NvbXBvbmVudDwvdGl0bGU+JiN4YTs8cG9seWdvbiBwb2ludHM9IjMzNy41LC0xMTM3IDE4NC41LC0xMTM3IDE4NC41LC0xMTAxIDMzNy41LC0xMTAxIDMzNy41LC0xMTM3IiBzdHJva2U9ImJsYWNrIiBmaWxsPSJsaWdodGJsdWUiLz4mI3hhOzx0ZXh0IGZvbnQtc2l6ZT0iMTQuMDAiIGZvbnQtZmFtaWx5PSJIZWx2ZXRpY2Esc2Fucy1TZXJpZiIgeT0iLTExMTUuMyIgeD0iMjYxIiB0ZXh0LWFuY2hvcj0ibWlkZGxlIj5TeXN0ZW0gQ29tcG9uZW50PC90ZXh0PiYjeGE7PC9nPiYjeGE7JiN4YTs8ZyBjbGFzcz0ibm9kZSIgaWQ9Im5vZGUyIj4mI3hhOzx0aXRsZT5LZXlfTm9kZTwvdGl0bGU+JiN4YTs8cG9seWdvbiBwb2ludHM9IjMxOSwtOTM3LjUgMjIxLC05MzcuNSAyMjEsLTkzMy41IDIxNywtOTMzLjUgMjE3LC05MjkuNSAyMjEsLTkyOS41IDIyMSwtOTA5LjUgMjE3LC05MDkuNSAyMTcsLTkwNS41IDIyMSwtOTA1LjUgMjIxLC05MDEuNSAzMTksLTkwMS41IDMxOSwtOTM3LjUiIHN0cm9rZT0iYmxhY2siIGZpbGw9ImxpZ2h0Z3JlZW4iLz4mI3hhOzxwb2x5bGluZSBwb2ludHM9IjIyMSwtOTMzLjUgMjI1LC05MzMuNSAyMjUsLTkyOS41IDIyMSwtOTI5LjUiIHN0cm9rZT0iYmxhY2siIGZpbGw9Im5vbmUiLz4mI3hhOzxwb2x5bGluZSBwb2ludHM9IjIyMSwtOTA5LjUgMjI1LC05MDkuNSAyMjUsLTkwNS41IDIyMSwtOTA1LjUiIHN0cm9rZT0iYmxhY2siIGZpbGw9Im5vbmUiLz4mI3hhOzx0ZXh0IGZvbnQtc2l6ZT0iMTQuMDAiIGZvbnQtZmFtaWx5PSJIZWx2ZXRpY2Esc2Fucy1TZXJpZiIgeT0iLTkxNS44IiB4PSIyNzAiIHRleHQtYW5jaG9yPSJtaWRkbGUiPkdvZG90IE5vZGU8L3RleHQ+JiN4YTs8L2c+JiN4YTsmI3hhOyYjeGE7PGcgY2xhc3M9Im5vZGUiIGlkPSJub2RlMyI+JiN4YTs8dGl0bGU+S2V5X1Jlc291cmNlPC90aXRsZT4mI3hhOzxwb2x5Z29uIHBvaW50cz0iMzMwLC03MzAuNSAyMTQsLTczMC41IDIxNCwtNjk0LjUgMzM2LC02OTQuNSAzMzYsLTcyNC41IDMzMCwtNzMwLjUiIHN0cm9rZT0iYmxhY2siIGZpbGw9InllbGxvdyIvPiYjeGE7PHBvbHlsaW5lIHBvaW50cz0iMzMwLC03MzAuNSAzMzAsLTcyNC41IiBzdHJva2U9ImJsYWNrIiBmaWxsPSJub25lIi8+JiN4YTs8cG9seWxpbmUgcG9pbnRzPSIzMzYsLTcyNC41IDMzMCwtNzI0LjUiIHN0cm9rZT0iYmxhY2siIGZpbGw9Im5vbmUiLz4mI3hhOzx0ZXh0IGZvbnQtc2l6ZT0iMTQuMDAiIGZvbnQtZmFtaWx5PSJIZWx2ZXRpY2Esc2Fucy1TZXJpZiIgeT0iLTcwOC44IiB4PSIyNzUiIHRleHQtYW5jaG9yPSJtaWRkbGUiPlJlc291cmNlL0Fzc2V0PC90ZXh0PiYjeGE7PC9nPiYjeGE7JiN4YTsmI3hhOzxnIGNsYXNzPSJub2RlIiBpZD0ibm9kZTQiPiYjeGE7PHRpdGxlPktleV9CdXM8L3RpdGxlPiYjeGE7PHBvbHlnb24gcG9pbnRzPSIzMTUuNSwtNTI4IDMxMi41LC01MzIgMjkxLjUsLTUzMiAyODguNSwtNTI4IDIyOC41LC01MjggMjI4LjUsLTQ5MiAzMTUuNSwtNDkyIDMxNS41LC01MjgiIHN0cm9rZT0iYmxhY2siIGZpbGw9Im9yYW5nZSIvPiYjeGE7PHRleHQgZm9udC1zaXplPSIxNC4wMCIgZm9udC1mYW1pbHk9IkhlbHZldGljYSxzYW5zLVNlcmlmIiB5PSItNTA2LjMiIHg9IjI3MiIgdGV4dC1hbmNob3I9Im1pZGRsZSI+QXVkaW8gQnVzPC90ZXh0PiYjeGE7PC9nPiYjeGE7JiN4YTsmI3hhOzxnIGNsYXNzPSJub2RlIiBpZD0ibm9kZTUiPiYjeGE7PHRpdGxlPktleV9TaW5nbGV0b248L3RpdGxlPiYjeGE7PHBhdGggZD0iTTIwMiwtMzM2LjVDMjAyLC0zMzYuNSAzMjYsLTMzNi41IDMyNiwtMzM2LjUgMzMyLC0zMzYuNSAzMzgsLTM0Mi41IDMzOCwtMzQ4LjUgMzM4LC0zNDguNSAzMzgsLTM2MC41IDMzOCwtMzYwLjUgMzM4LC0zNjYuNSAzMzIsLTM3Mi41IDMyNiwtMzcyLjUgMzI2LC0zNzIuNSAyMDIsLTM3Mi41IDIwMiwtMzcyLjUgMTk2LC0zNzIuNSAxOTAsLTM2Ni41IDE5MCwtMzYwLjUgMTkwLC0zNjAuNSAxOTAsLTM0OC41IDE5MCwtMzQ4LjUgMTkwLC0zNDIuNSAxOTYsLTMzNi41IDIwMiwtMzM2LjUiIHN0cm9rZT0iYmxhY2siIGZpbGw9ImxpZ2h0Y29yYWwiLz4mI3hhOzx0ZXh0IGZvbnQtc2l6ZT0iMTQuMDAiIGZvbnQtZmFtaWx5PSJIZWx2ZXRpY2Esc2Fucy1TZXJpZiIgeT0iLTM1MC44IiB4PSIyNjQiIHRleHQtYW5jaG9yPSJtaWRkbGUiPkF1dG9sb2FkIFNpbmdsZXRvbjwvdGV4dD4mI3hhOzwvZz4mI3hhOyYjeGE7JiN4YTs8ZyBjbGFzcz0ibm9kZSIgaWQ9Im5vZGU2Ij4mI3hhOzx0aXRsZT5LZXlfRWRnZV9UcmlnZ2VyPC90aXRsZT4mI3hhOzxwb2x5Z29uIHBvaW50cz0iMTI2LC0xMTM3IDE2LC0xMTM3IDE2LC0xMTAxIDEyNiwtMTEwMSAxMjYsLTExMzciIHN0cm9rZT0iYmxhY2siIGZpbGw9Im5vbmUiLz4mI3hhOzx0ZXh0IGZvbnQtc2l6ZT0iMTQuMDAiIGZvbnQtZmFtaWx5PSJIZWx2ZXRpY2Esc2Fucy1TZXJpZiIgeT0iLTExMTUuMyIgeD0iNzEiIHRleHQtYW5jaG9yPSJtaWRkbGUiPlRyaWdnZXJzL0NhbGxzPC90ZXh0PiYjeGE7PC9nPiYjeGE7JiN4YTs8ZyBjbGFzcz0ibm9kZSIgaWQ9Im5vZGU3Ij4mI3hhOzx0aXRsZT5LZXlfRWRnZV9EYXRhRmxvdzwvdGl0bGU+JiN4YTs8cG9seWdvbiBwb2ludHM9IjE0Ny41LC05MzcuNSAxOC41LC05MzcuNSAxOC41LC05MDEuNSAxNDcuNSwtOTAxLjUgMTQ3LjUsLTkzNy41IiBzdHJva2UtZGFzaGFycmF5PSI1LDIiIHN0cm9rZT0iYmx1ZSIgZmlsbD0ibm9uZSIvPiYjeGE7PHRleHQgZm9udC1zaXplPSIxNC4wMCIgZm9udC1mYW1pbHk9IkhlbHZldGljYSxzYW5zLVNlcmlmIiB5PSItOTE1LjgiIHg9IjgzIiB0ZXh0LWFuY2hvcj0ibWlkZGxlIj5BdWRpbyBEYXRhIEZsb3c8L3RleHQ+JiN4YTs8L2c+JiN4YTsmI3hhOyYjeGE7PGcgY2xhc3M9Im5vZGUiIGlkPSJub2RlOCI+JiN4YTs8dGl0bGU+S2V5X0VkZ2VfQ29udHJvbDwvdGl0bGU+JiN4YTs8cG9seWdvbiBwb2ludHM9IjE1NiwtNzMwLjUgMTYsLTczMC41IDE2LC02OTQuNSAxNTYsLTY5NC41IDE1NiwtNzMwLjUiIHN0cm9rZS1kYXNoYXJyYXk9IjEsNSIgc3Ryb2tlPSJyZWQiIGZpbGw9Im5vbmUiLz4mI3hhOzx0ZXh0IGZvbnQtc2l6ZT0iMTQuMDAiIGZvbnQtZmFtaWx5PSJIZWx2ZXRpY2Esc2Fucy1TZXJpZiIgeT0iLTcwOC44IiB4PSI4NiIgdGV4dC1hbmNob3I9Im1pZGRsZSI+Q29udHJvbHMvTWFuYWdlczwvdGV4dD4mI3hhOzwvZz4mI3hhOyYjeGE7JiN4YTs8ZyBjbGFzcz0ibm9kZSIgaWQ9Im5vZGU5Ij4mI3hhOzx0aXRsZT5HYW1lT2JqZWN0czwvdGl0bGU+JiN4YTs8cG9seWdvbiBwb2ludHM9IjEzMzMsLTExMzggMTExNywtMTEzOCAxMTE3LC0xMTAwIDEzMzMsLTExMDAgMTMzMywtMTEzOCIgc3Ryb2tlPSJibGFjayIgZmlsbD0ibGlnaHRibHVlIi8+JiN4YTs8dGV4dCBmb250LXNpemU9IjE0LjAwIiBmb250LWZhbWlseT0iSGVsdmV0aWNhLHNhbnMtU2VyaWYiIHk9Ii0xMTIyLjgiIHg9IjEyMjUiIHRleHQtYW5jaG9yPSJtaWRkbGUiPkdhbWUgT2JqZWN0czwvdGV4dD4mI3hhOzx0ZXh0IGZvbnQtc2l6ZT0iMTQuMDAiIGZvbnQtZmFtaWx5PSJIZWx2ZXRpY2Esc2Fucy1TZXJpZiIgeT0iLTExMDcuOCIgeD0iMTIyNSIgdGV4dC1hbmNob3I9Im1pZGRsZSI+KFBsYXllciwgQmFsbCwgT2JzdGFjbGVzLCBldGMuKTwvdGV4dD4mI3hhOzwvZz4mI3hhOyYjeGE7PGcgY2xhc3M9Im5vZGUiIGlkPSJub2RlMTEiPiYjeGE7PHRpdGxlPkF1ZGlvTWFuYWdlcjwvdGl0bGU+JiN4YTs8cGF0aCBkPSJNMTI1MiwtODY2LjVDMTI1MiwtODY2LjUgMTQyMiwtODY2LjUgMTQyMiwtODY2LjUgMTQyOCwtODY2LjUgMTQzNCwtODcyLjUgMTQzNCwtODc4LjUgMTQzNCwtODc4LjUgMTQzNCwtOTYwLjUgMTQzNCwtOTYwLjUgMTQzNCwtOTY2LjUgMTQyOCwtOTcyLjUgMTQyMiwtOTcyLjUgMTQyMiwtOTcyLjUgMTI1MiwtOTcyLjUgMTI1MiwtOTcyLjUgMTI0NiwtOTcyLjUgMTI0MCwtOTY2LjUgMTI0MCwtOTYwLjUgMTI0MCwtOTYwLjUgMTI0MCwtODc4LjUgMTI0MCwtODc4LjUgMTI0MCwtODcyLjUgMTI0NiwtODY2LjUgMTI1MiwtODY2LjUiIHN0cm9rZT0iYmxhY2siIGZpbGw9ImxpZ2h0Y29yYWwiLz4mI3hhOzx0ZXh0IGZvbnQtc2l6ZT0iMTQuMDAiIGZvbnQtZmFtaWx5PSJIZWx2ZXRpY2Esc2Fucy1TZXJpZiIgeT0iLTk1Ny4zIiB4PSIxMzM3IiB0ZXh0LWFuY2hvcj0ibWlkZGxlIj5BdWRpb01hbmFnZXIgKEF1dG9sb2FkKTwvdGV4dD4mI3hhOzxwb2x5bGluZSBwb2ludHM9IjEyNDAsLTk0OS41IDE0MzQsLTk0OS41IiBzdHJva2U9ImJsYWNrIiBmaWxsPSJub25lIi8+JiN4YTs8dGV4dCBmb250LXNpemU9IjE0LjAwIiBmb250LWZhbWlseT0iSGVsdmV0aWNhLHNhbnMtU2VyaWYiIHk9Ii05MzQuMyIgeD0iMTI0OCIgdGV4dC1hbmNob3I9InN0YXJ0Ij4rIHBsYXlfc2Z4KCk8L3RleHQ+JiN4YTs8dGV4dCBmb250LXNpemU9IjE0LjAwIiBmb250LWZhbWlseT0iSGVsdmV0aWNhLHNhbnMtU2VyaWYiIHk9Ii05MTkuMyIgeD0iMTI0OCIgdGV4dC1hbmNob3I9InN0YXJ0Ij4rIHBsYXlfdWlfc2Z4KCk8L3RleHQ+JiN4YTs8dGV4dCBmb250LXNpemU9IjE0LjAwIiBmb250LWZhbWlseT0iSGVsdmV0aWNhLHNhbnMtU2VyaWYiIHk9Ii05MDQuMyIgeD0iMTI0OCIgdGV4dC1hbmNob3I9InN0YXJ0Ij4rIHBsYXlfbXVzaWMoKTwvdGV4dD4mI3hhOzx0ZXh0IGZvbnQtc2l6ZT0iMTQuMDAiIGZvbnQtZmFtaWx5PSJIZWx2ZXRpY2Esc2Fucy1TZXJpZiIgeT0iLTg4OS4zIiB4PSIxMjQ4IiB0ZXh0LWFuY2hvcj0ic3RhcnQiPisgc2V0X2J1c192b2x1bWUoKTwvdGV4dD4mI3hhOzx0ZXh0IGZvbnQtc2l6ZT0iMTQuMDAiIGZvbnQtZmFtaWx5PSJIZWx2ZXRpY2Esc2Fucy1TZXJpZiIgeT0iLTg3NC4zIiB4PSIxMjQ4IiB0ZXh0LWFuY2hvcj0ic3RhcnQiPisgbWFuYWdlX3Bvb2xzKCk8L3RleHQ+JiN4YTs8L2c+JiN4YTsmI3hhOzxnIGNsYXNzPSJlZGdlIiBpZD0iZWRnZTE4Ij4mI3hhOzx0aXRsZT5HYW1lT2JqZWN0cy0mZ3Q7QXVkaW9NYW5hZ2VyPC90aXRsZT4mI3hhOzxwYXRoIGQ9Ik0xMjg2LjUsLTEwOTkuODdDMTI4Ni41LC0xMDk5Ljg3IDEyODYuNSwtOTgyLjg4IDEyODYuNSwtOTgyLjg4IiBzdHJva2U9ImJsYWNrIiBmaWxsPSJub25lIi8+JiN4YTs8cG9seWdvbiBwb2ludHM9IjEyOTAsLTk4Mi44OCAxMjg2LjUsLTk3Mi44OCAxMjgzLC05ODIuODggMTI5MCwtOTgyLjg4IiBzdHJva2U9ImJsYWNrIiBmaWxsPSJibGFjayIvPiYjeGE7PHRleHQgZm9udC1zaXplPSIxMC4wMCIgZm9udC1mYW1pbHk9IkhlbHZldGljYSxzYW5zLVNlcmlmIiB5PSItMTAzOCIgeD0iMTI5Mi41IiB0ZXh0LWFuY2hvcj0ibWlkZGxlIj5SZXF1ZXN0IFNGWCBQbGF5YmFjazwvdGV4dD4mI3hhOzwvZz4mI3hhOyYjeGE7PGcgY2xhc3M9Im5vZGUiIGlkPSJub2RlMTAiPiYjeGE7PHRpdGxlPlVJU2NlbmVzPC90aXRsZT4mI3hhOzxwb2x5Z29uIHBvaW50cz0iMTUwNC41LC0xMTM4IDEzOTEuNSwtMTEzOCAxMzkxLjUsLTExMDAgMTUwNC41LC0xMTAwIDE1MDQuNSwtMTEzOCIgc3Ryb2tlPSJibGFjayIgZmlsbD0ibGlnaHRibHVlIi8+JiN4YTs8dGV4dCBmb250LXNpemU9IjE0LjAwIiBmb250LWZhbWlseT0iSGVsdmV0aWNhLHNhbnMtU2VyaWYiIHk9Ii0xMTIyLjgiIHg9IjE0NDgiIHRleHQtYW5jaG9yPSJtaWRkbGUiPlVJIFNjZW5lczwvdGV4dD4mI3hhOzx0ZXh0IGZvbnQtc2l6ZT0iMTQuMDAiIGZvbnQtZmFtaWx5PSJIZWx2ZXRpY2Esc2Fucy1TZXJpZiIgeT0iLTExMDcuOCIgeD0iMTQ0OCIgdGV4dC1hbmNob3I9Im1pZGRsZSI+KE1lbnVzLCBIVUQpPC90ZXh0PiYjeGE7PC9nPiYjeGE7JiN4YTs8ZyBjbGFzcz0iZWRnZSIgaWQ9ImVkZ2UxOSI+JiN4YTs8dGl0bGU+VUlTY2VuZXMtJmd0O0F1ZGlvTWFuYWdlcjwvdGl0bGU+JiN4YTs8cGF0aCBkPSJNMTQxMi43NSwtMTA5OS44N0MxNDEyLjc1LC0xMDk5Ljg3IDE0MTIuNzUsLTk4Mi44OCAxNDEyLjc1LC05ODIuODgiIHN0cm9rZT0iYmxhY2siIGZpbGw9Im5vbmUiLz4mI3hhOzxwb2x5Z29uIHBvaW50cz0iMTQxNi4yNSwtOTgyLjg4IDE0MTIuNzUsLTk3Mi44OCAxNDA5LjI1LC05ODIuODggMTQxNi4yNSwtOTgyLjg4IiBzdHJva2U9ImJsYWNrIiBmaWxsPSJibGFjayIvPiYjeGE7PHRleHQgZm9udC1zaXplPSIxMC4wMCIgZm9udC1mYW1pbHk9IkhlbHZldGljYSxzYW5zLVNlcmlmIiB5PSItMTAzOCIgeD0iMTUwMS41IiB0ZXh0LWFuY2hvcj0ibWlkZGxlIj5SZXF1ZXN0IFVJL011c2ljIFBsYXliYWNrPC90ZXh0PiYjeGE7PC9nPiYjeGE7JiN4YTs8ZyBjbGFzcz0ibm9kZSIgaWQ9Im5vZGUxMiI+JiN4YTs8dGl0bGU+QVNQX1Bvb2w8L3RpdGxlPiYjeGE7PHBvbHlnb24gcG9pbnRzPSIxMzEwLC03MzEuNSAxMDkyLC03MzEuNSAxMDkyLC03MjcuNSAxMDg4LC03MjcuNSAxMDg4LC03MjMuNSAxMDkyLC03MjMuNSAxMDkyLC03MDEuNSAxMDg4LC03MDEuNSAxMDg4LC02OTcuNSAxMDkyLC02OTcuNSAxMDkyLC02OTMuNSAxMzEwLC02OTMuNSAxMzEwLC03MzEuNSIgc3Ryb2tlPSJibGFjayIgZmlsbD0ibGlnaHRncmVlbiIvPiYjeGE7PHBvbHlsaW5lIHBvaW50cz0iMTA5MiwtNzI3LjUgMTA5NiwtNzI3LjUgMTA5NiwtNzIzLjUgMTA5MiwtNzIzLjUiIHN0cm9rZT0iYmxhY2siIGZpbGw9Im5vbmUiLz4mI3hhOzxwb2x5bGluZSBwb2ludHM9IjEwOTIsLTcwMS41IDEwOTYsLTcwMS41IDEwOTYsLTY5Ny41IDEwOTIsLTY5Ny41IiBzdHJva2U9ImJsYWNrIiBmaWxsPSJub25lIi8+JiN4YTs8dGV4dCBmb250LXNpemU9IjE0LjAwIiBmb250LWZhbWlseT0iSGVsdmV0aWNhLHNhbnMtU2VyaWYiIHk9Ii03MTYuMyIgeD0iMTIwMSIgdGV4dC1hbmNob3I9Im1pZGRsZSI+QXVkaW9TdHJlYW1QbGF5ZXIgUG9vbDwvdGV4dD4mI3hhOzx0ZXh0IGZvbnQtc2l6ZT0iMTQuMDAiIGZvbnQtZmFtaWx5PSJIZWx2ZXRpY2Esc2Fucy1TZXJpZiIgeT0iLTcwMS4zIiB4PSIxMjAxIiB0ZXh0LWFuY2hvcj0ibWlkZGxlIj4oTWFuYWdlZCBieSBBdWRpb01hbmFnZXIpPC90ZXh0PiYjeGE7PC9nPiYjeGE7JiN4YTs8ZyBjbGFzcz0iZWRnZSIgaWQ9ImVkZ2UyMCI+JiN4YTs8dGl0bGU+QXVkaW9NYW5hZ2VyLSZndDtBU1BfUG9vbDwvdGl0bGU+JiN4YTs8cGF0aCBkPSJNMTI3NSwtODY2LjQ2QzEyNzUsLTg2Ni40NiAxMjc1LC03NDEuNzIgMTI3NSwtNzQxLjcyIiBzdHJva2UtZGFzaGFycmF5PSIxLDUiIHN0cm9rZT0icmVkIiBmaWxsPSJub25lIi8+JiN4YTs8cG9seWdvbiBwb2ludHM9IjEyNzguNSwtNzQxLjcyIDEyNzUsLTczMS43MiAxMjcxLjUsLTc0MS43MiAxMjc4LjUsLTc0MS43MiIgc3Ryb2tlPSJyZWQiIGZpbGw9InJlZCIvPiYjeGE7PHRleHQgZm9udC1zaXplPSIxMC4wMCIgZm9udC1mYW1pbHk9IkhlbHZldGljYSxzYW5zLVNlcmlmIiB5PSItODA0IiB4PSIxMjI1LjUiIHRleHQtYW5jaG9yPSJtaWRkbGUiPk1hbmFnZXM8L3RleHQ+JiN4YTs8L2c+JiN4YTsmI3hhOzxnIGNsYXNzPSJub2RlIiBpZD0ibm9kZTEzIj4mI3hhOzx0aXRsZT5BU1AzRF9Qb29sPC90aXRsZT4mI3hhOzxwb2x5Z29uIHBvaW50cz0iMTAzNCwtNzMxLjUgODE2LC03MzEuNSA4MTYsLTcyNy41IDgxMiwtNzI3LjUgODEyLC03MjMuNSA4MTYsLTcyMy41IDgxNiwtNzAxLjUgODEyLC03MDEuNSA4MTIsLTY5Ny41IDgxNiwtNjk3LjUgODE2LC02OTMuNSAxMDM0LC02OTMuNSAxMDM0LC03MzEuNSIgc3Ryb2tlPSJibGFjayIgZmlsbD0ibGlnaHRncmVlbiIvPiYjeGE7PHBvbHlsaW5lIHBvaW50cz0iODE2LC03MjcuNSA4MjAsLTcyNy41IDgyMCwtNzIzLjUgODE2LC03MjMuNSIgc3Ryb2tlPSJibGFjayIgZmlsbD0ibm9uZSIvPiYjeGE7PHBvbHlsaW5lIHBvaW50cz0iODE2LC03MDEuNSA4MjAsLTcwMS41IDgyMCwtNjk3LjUgODE2LC02OTcuNSIgc3Ryb2tlPSJibGFjayIgZmlsbD0ibm9uZSIvPiYjeGE7PHRleHQgZm9udC1zaXplPSIxNC4wMCIgZm9udC1mYW1pbHk9IkhlbHZldGljYSxzYW5zLVNlcmlmIiB5PSItNzE2LjMiIHg9IjkyNSIgdGV4dC1hbmNob3I9Im1pZGRsZSI+QXVkaW9TdHJlYW1QbGF5ZXIzRCBQb29sPC90ZXh0PiYjeGE7PHRleHQgZm9udC1zaXplPSIxNC4wMCIgZm9udC1mYW1pbHk9IkhlbHZldGljYSxzYW5zLVNlcmlmIiB5PSItNzAxLjMiIHg9IjkyNSIgdGV4dC1hbmNob3I9Im1pZGRsZSI+KE1hbmFnZWQgYnkgQXVkaW9NYW5hZ2VyKTwvdGV4dD4mI3hhOzwvZz4mI3hhOyYjeGE7PGcgY2xhc3M9ImVkZ2UiIGlkPSJlZGdlMjEiPiYjeGE7PHRpdGxlPkF1ZGlvTWFuYWdlci0mZ3Q7QVNQM0RfUG9vbDwvdGl0bGU+JiN4YTs8cGF0aCBkPSJNMTIzOS44OCwtODc3QzExMTguMDgsLTg3NyA5MjUsLTg3NyA5MjUsLTg3NyA5MjUsLTg3NyA5MjUsLTc0MS42OSA5MjUsLTc0MS42OSIgc3Ryb2tlLWRhc2hhcnJheT0iMSw1IiBzdHJva2U9InJlZCIgZmlsbD0ibm9uZSIvPiYjeGE7PHBvbHlnb24gcG9pbnRzPSI5MjguNSwtNzQxLjY5IDkyNSwtNzMxLjY5IDkyMS41LC03NDEuNjkgOTI4LjUsLTc0MS42OSIgc3Ryb2tlPSJyZWQiIGZpbGw9InJlZCIvPiYjeGE7PHRleHQgZm9udC1zaXplPSIxMC4wMCIgZm9udC1mYW1pbHk9IkhlbHZldGljYSxzYW5zLVNlcmlmIiB5PSItODA0IiB4PSIxMDMzLjUiIHRleHQtYW5jaG9yPSJtaWRkbGUiPk1hbmFnZXM8L3RleHQ+JiN4YTs8L2c+JiN4YTsmI3hhOzxnIGNsYXNzPSJub2RlIiBpZD0ibm9kZTE0Ij4mI3hhOzx0aXRsZT5BU1BfQXR0YWNoZWQ8L3RpdGxlPiYjeGE7PHBvbHlnb24gcG9pbnRzPSIxNTkwLC03MzEuNSAxMzY4LC03MzEuNSAxMzY4LC03MjcuNSAxMzY0LC03MjcuNSAxMzY0LC03MjMuNSAxMzY4LC03MjMuNSAxMzY4LC03MDEuNSAxMzY0LC03MDEuNSAxMzY0LC02OTcuNSAxMzY4LC02OTcuNSAxMzY4LC02OTMuNSAxNTkwLC02OTMuNSAxNTkwLC03MzEuNSIgc3Ryb2tlPSJibGFjayIgZmlsbD0ibGlnaHRncmVlbiIvPiYjeGE7PHBvbHlsaW5lIHBvaW50cz0iMTM2OCwtNzI3LjUgMTM3MiwtNzI3LjUgMTM3MiwtNzIzLjUgMTM2OCwtNzIzLjUiIHN0cm9rZT0iYmxhY2siIGZpbGw9Im5vbmUiLz4mI3hhOzxwb2x5bGluZSBwb2ludHM9IjEzNjgsLTcwMS41IDEzNzIsLTcwMS41IDEzNzIsLTY5Ny41IDEzNjgsLTY5Ny41IiBzdHJva2U9ImJsYWNrIiBmaWxsPSJub25lIi8+JiN4YTs8dGV4dCBmb250LXNpemU9IjE0LjAwIiBmb250LWZhbWlseT0iSGVsdmV0aWNhLHNhbnMtU2VyaWYiIHk9Ii03MTYuMyIgeD0iMTQ3OSIgdGV4dC1hbmNob3I9Im1pZGRsZSI+QXR0YWNoZWQgQXVkaW9TdHJlYW1QbGF5ZXJzPC90ZXh0PiYjeGE7PHRleHQgZm9udC1zaXplPSIxNC4wMCIgZm9udC1mYW1pbHk9IkhlbHZldGljYSxzYW5zLVNlcmlmIiB5PSItNzAxLjMiIHg9IjE0NzkiIHRleHQtYW5jaG9yPSJtaWRkbGUiPihVSSwgTXVzaWMpPC90ZXh0PiYjeGE7PC9nPiYjeGE7JiN4YTs8ZyBjbGFzcz0iZWRnZSIgaWQ9ImVkZ2UyMiI+JiN4YTs8dGl0bGU+QXVkaW9NYW5hZ2VyLSZndDtBU1BfQXR0YWNoZWQ8L3RpdGxlPiYjeGE7PHBhdGggZD0iTTEzOTAsLTg2Ni40NkMxMzkwLC04NjYuNDYgMTM5MCwtNzQxLjcyIDEzOTAsLTc0MS43MiIgc3Ryb2tlLWRhc2hhcnJheT0iMSw1IiBzdHJva2U9InJlZCIgZmlsbD0ibm9uZSIvPiYjeGE7PHBvbHlnb24gcG9pbnRzPSIxMzkzLjUsLTc0MS43MiAxMzkwLC03MzEuNzIgMTM4Ni41LC03NDEuNzIgMTM5My41LC03NDEuNzIiIHN0cm9rZT0icmVkIiBmaWxsPSJyZWQiLz4mI3hhOzx0ZXh0IGZvbnQtc2l6ZT0iMTAuMDAiIGZvbnQtZmFtaWx5PSJIZWx2ZXRpY2Esc2Fucy1TZXJpZiIgeT0iLTgwNCIgeD0iMTQ5MS41IiB0ZXh0LWFuY2hvcj0ibWlkZGxlIj5NYW5hZ2VzPC90ZXh0PiYjeGE7PC9nPiYjeGE7JiN4YTs8ZyBjbGFzcz0ibm9kZSIgaWQ9Im5vZGUxNSI+JiN4YTs8dGl0bGU+QVNQM0RfQXR0YWNoZWQ8L3RpdGxlPiYjeGE7PHBvbHlnb24gcG9pbnRzPSI3NTgsLTczMS41IDUxNiwtNzMxLjUgNTE2LC03MjcuNSA1MTIsLTcyNy41IDUxMiwtNzIzLjUgNTE2LC03MjMuNSA1MTYsLTcwMS41IDUxMiwtNzAxLjUgNTEyLC02OTcuNSA1MTYsLTY5Ny41IDUxNiwtNjkzLjUgNzU4LC02OTMuNSA3NTgsLTczMS41IiBzdHJva2U9ImJsYWNrIiBmaWxsPSJsaWdodGdyZWVuIi8+JiN4YTs8cG9seWxpbmUgcG9pbnRzPSI1MTYsLTcyNy41IDUyMCwtNzI3LjUgNTIwLC03MjMuNSA1MTYsLTcyMy41IiBzdHJva2U9ImJsYWNrIiBmaWxsPSJub25lIi8+JiN4YTs8cG9seWxpbmUgcG9pbnRzPSI1MTYsLTcwMS41IDUyMCwtNzAxLjUgNTIwLC02OTcuNSA1MTYsLTY5Ny41IiBzdHJva2U9ImJsYWNrIiBmaWxsPSJub25lIi8+JiN4YTs8dGV4dCBmb250LXNpemU9IjE0LjAwIiBmb250LWZhbWlseT0iSGVsdmV0aWNhLHNhbnMtU2VyaWYiIHk9Ii03MTYuMyIgeD0iNjM3IiB0ZXh0LWFuY2hvcj0ibWlkZGxlIj5BdHRhY2hlZCBBdWRpb1N0cmVhbVBsYXllcjNEczwvdGV4dD4mI3hhOzx0ZXh0IGZvbnQtc2l6ZT0iMTQuMDAiIGZvbnQtZmFtaWx5PSJIZWx2ZXRpY2Esc2Fucy1TZXJpZiIgeT0iLTcwMS4zIiB4PSI2MzciIHRleHQtYW5jaG9yPSJtaWRkbGUiPihPbiBHYW1lIE9iamVjdHMpPC90ZXh0PiYjeGE7PC9nPiYjeGE7JiN4YTs8ZyBjbGFzcz0iZWRnZSIgaWQ9ImVkZ2UyMyI+JiN4YTs8dGl0bGU+QXVkaW9NYW5hZ2VyLSZndDtBU1AzRF9BdHRhY2hlZDwvdGl0bGU+JiN4YTs8cGF0aCBkPSJNMTIzOS42NiwtODg5QzEwNTYuMTcsLTg4OSA2NzcuMzMsLTg4OSA2NzcuMzMsLTg4OSA2NzcuMzMsLTg4OSA2NzcuMzMsLTc0MS43MiA2NzcuMzMsLTc0MS43MiIgc3Ryb2tlLWRhc2hhcnJheT0iMSw1IiBzdHJva2U9InJlZCIgZmlsbD0ibm9uZSIvPiYjeGE7PHBvbHlnb24gcG9pbnRzPSI2ODAuODMsLTc0MS43MiA2NzcuMzMsLTczMS43MiA2NzMuODMsLTc0MS43MiA2ODAuODMsLTc0MS43MiIgc3Ryb2tlPSJyZWQiIGZpbGw9InJlZCIvPiYjeGE7PHRleHQgZm9udC1zaXplPSIxMC4wMCIgZm9udC1mYW1pbHk9IkhlbHZldGljYSxzYW5zLVNlcmlmIiB5PSItODA0IiB4PSI3NTEuNSIgdGV4dC1hbmNob3I9Im1pZGRsZSI+Q29udHJvbHM8L3RleHQ+JiN4YTs8L2c+JiN4YTsmI3hhOzxnIGNsYXNzPSJub2RlIiBpZD0ibm9kZTE2Ij4mI3hhOzx0aXRsZT5BdWRpb0Fzc2V0czwvdGl0bGU+JiN4YTs8cG9seWdvbiBwb2ludHM9IjE4ODAuNSwtNzM5IDE3MDUuNSwtNzM5IDE3MDUuNSwtNjg2IDE4ODYuNSwtNjg2IDE4ODYuNSwtNzMzIDE4ODAuNSwtNzM5IiBzdHJva2U9ImJsYWNrIiBmaWxsPSJ5ZWxsb3ciLz4mI3hhOzxwb2x5bGluZSBwb2ludHM9IjE4ODAuNSwtNzM5IDE4ODAuNSwtNzMzIiBzdHJva2U9ImJsYWNrIiBmaWxsPSJub25lIi8+JiN4YTs8cG9seWxpbmUgcG9pbnRzPSIxODg2LjUsLTczMyAxODgwLjUsLTczMyIgc3Ryb2tlPSJibGFjayIgZmlsbD0ibm9uZSIvPiYjeGE7PHRleHQgZm9udC1zaXplPSIxNC4wMCIgZm9udC1mYW1pbHk9IkhlbHZldGljYSxzYW5zLVNlcmlmIiB5PSItNzIzLjgiIHg9IjE3OTYiIHRleHQtYW5jaG9yPSJtaWRkbGUiPkF1ZGlvU3RyZWFtIFJlc291cmNlczwvdGV4dD4mI3hhOzx0ZXh0IGZvbnQtc2l6ZT0iMTQuMDAiIGZvbnQtZmFtaWx5PSJIZWx2ZXRpY2Esc2Fucy1TZXJpZiIgeT0iLTcwOC44IiB4PSIxNzk2IiB0ZXh0LWFuY2hvcj0ibWlkZGxlIj4oLm9nZywgLndhdik8L3RleHQ+JiN4YTs8dGV4dCBmb250LXNpemU9IjE0LjAwIiBmb250LWZhbWlseT0iSGVsdmV0aWNhLHNhbnMtU2VyaWYiIHk9Ii02OTMuOCIgeD0iMTc5NiIgdGV4dC1hbmNob3I9Im1pZGRsZSI+KFNGWCwgTXVzaWMpPC90ZXh0PiYjeGE7PC9nPiYjeGE7JiN4YTs8ZyBjbGFzcz0iZWRnZSIgaWQ9ImVkZ2UyNCI+JiN4YTs8dGl0bGU+QXVkaW9NYW5hZ2VyLSZndDtBdWRpb0Fzc2V0czwvdGl0bGU+JiN4YTs8cGF0aCBkPSJNMTQxMiwtODY2LjQyQzE0MTIsLTgxMi4yMyAxNDEyLC03MzYgMTQxMiwtNzM2IDE0MTIsLTczNiAxNjk1LjQ4LC03MzYgMTY5NS40OCwtNzM2IiBzdHJva2U9ImJsYWNrIiBmaWxsPSJub25lIi8+JiN4YTs8cG9seWdvbiBwb2ludHM9IjE2OTUuNDgsLTczOS41IDE3MDUuNDgsLTczNiAxNjk1LjQ4LC03MzIuNSAxNjk1LjQ4LC03MzkuNSIgc3Ryb2tlPSJibGFjayIgZmlsbD0iYmxhY2siLz4mI3hhOzx0ZXh0IGZvbnQtc2l6ZT0iMTAuMDAiIGZvbnQtZmFtaWx5PSJIZWx2ZXRpY2Esc2Fucy1TZXJpZiIgeT0iLTgwNCIgeD0iMTcwMS41IiB0ZXh0LWFuY2hvcj0ibWlkZGxlIj5Mb2FkczwvdGV4dD4mI3hhOzwvZz4mI3hhOyYjeGE7PGcgY2xhc3M9Im5vZGUiIGlkPSJub2RlMTciPiYjeGE7PHRpdGxlPkF1ZGlvU2VydmVyPC90aXRsZT4mI3hhOzxwb2x5Z29uIHBvaW50cz0iMTI3NiwtNjEgMTE3NCwtNjEgMTE3NCwtMjUgMTI3NiwtMjUgMTI3NiwtNjEiIHN0cm9rZT0iYmxhY2siIGZpbGw9ImxpZ2h0Ymx1ZSIvPiYjeGE7PHRleHQgZm9udC1zaXplPSIxNC4wMCIgZm9udC1mYW1pbHk9IkhlbHZldGljYSxzYW5zLVNlcmlmIiB5PSItMzkuMyIgeD0iMTIyNSIgdGV4dC1hbmNob3I9Im1pZGRsZSI+QXVkaW9TZXJ2ZXI8L3RleHQ+JiN4YTs8L2c+JiN4YTsmI3hhOzxnIGNsYXNzPSJlZGdlIiBpZD0iZWRnZTI1Ij4mI3hhOzx0aXRsZT5BdWRpb01hbmFnZXItJmd0O0F1ZGlvU2VydmVyPC90aXRsZT4mI3hhOzxwYXRoIGQ9Ik0xMzM5LC04NjYuMzJDMTMzOSwtNjc2LjQyIDEzMzksLTQzIDEzMzksLTQzIDEzMzksLTQzIDEyODYuMzMsLTQzIDEyODYuMzMsLTQzIiBzdHJva2UtZGFzaGFycmF5PSIxLDUiIHN0cm9rZT0icmVkIiBmaWxsPSJub25lIi8+JiN4YTs8cG9seWdvbiBwb2ludHM9IjEyODYuMzMsLTM5LjUgMTI3Ni4zMywtNDMgMTI4Ni4zMywtNDYuNSAxMjg2LjMzLC0zOS41IiBzdHJva2U9InJlZCIgZmlsbD0icmVkIi8+JiN4YTs8dGV4dCBmb250LXNpemU9IjEwLjAwIiBmb250LWZhbWlseT0iSGVsdmV0aWNhLHNhbnMtU2VyaWYiIHk9Ii00MzAiIHg9IjIwMTkiIHRleHQtYW5jaG9yPSJtaWRkbGUiPlNldHMgQnVzIFZvbHVtZXM8L3RleHQ+JiN4YTs8L2c+JiN4YTsmI3hhOzxnIGNsYXNzPSJlZGdlIiBpZD0iZWRnZTI2Ij4mI3hhOzx0aXRsZT5BU1BfUG9vbC0mZ3Q7QXVkaW9Bc3NldHM8L3RpdGxlPiYjeGE7PHBhdGggZD0iTTEyOTMuNSwtNjkzLjM1QzEyOTMuNSwtNjkyLjUgMTI5My41LC02OTIgMTI5My41LC02OTIgMTI5My41LC02OTIgMTY5NS4yOSwtNjkyIDE2OTUuMjksLTY5MiIgc3Ryb2tlPSJibGFjayIgZmlsbD0ibm9uZSIvPiYjeGE7PHBvbHlnb24gcG9pbnRzPSIxNjk1LjI5LC02OTUuNSAxNzA1LjI5LC02OTIgMTY5NS4yOSwtNjg4LjUgMTY5NS4yOSwtNjk1LjUiIHN0cm9rZT0iYmxhY2siIGZpbGw9ImJsYWNrIi8+JiN4YTs8dGV4dCBmb250LXNpemU9IjEwLjAwIiBmb250LWZhbWlseT0iSGVsdmV0aWNhLHNhbnMtU2VyaWYiIHk9Ii04MDQiIHg9IjEzODgiIHRleHQtYW5jaG9yPSJtaWRkbGUiPlVzZXM8L3RleHQ+JiN4YTs8L2c+JiN4YTsmI3hhOzxnIGNsYXNzPSJub2RlIiBpZD0ibm9kZTIxIj4mI3hhOzx0aXRsZT5CdXNfVUk8L3RpdGxlPiYjeGE7PHBvbHlnb24gcG9pbnRzPSIxMjc3LC01MjggMTI3NCwtNTMyIDEyNTMsLTUzMiAxMjUwLC01MjggMTIyMywtNTI4IDEyMjMsLTQ5MiAxMjc3LC00OTIgMTI3NywtNTI4IiBzdHJva2U9ImJsYWNrIiBmaWxsPSJvcmFuZ2UiLz4mI3hhOzx0ZXh0IGZvbnQtc2l6ZT0iMTQuMDAiIGZvbnQtZmFtaWx5PSJIZWx2ZXRpY2Esc2Fucy1TZXJpZiIgeT0iLTUwNi4zIiB4PSIxMjUwIiB0ZXh0LWFuY2hvcj0ibWlkZGxlIj5VSTwvdGV4dD4mI3hhOzwvZz4mI3hhOyYjeGE7PGcgY2xhc3M9ImVkZ2UiIGlkPSJlZGdlMzIiPiYjeGE7PHRpdGxlPkFTUF9Qb29sLSZndDtCdXNfVUk8L3RpdGxlPiYjeGE7PHBhdGggZD0iTTEyNTAsLTY5My40NUMxMjUwLC02OTMuNDUgMTI1MCwtNTM4LjI3IDEyNTAsLTUzOC4yNyIgc3Ryb2tlLWRhc2hhcnJheT0iNSwyIiBzdHJva2U9ImJsdWUiIGZpbGw9Im5vbmUiLz4mI3hhOzxwb2x5Z29uIHBvaW50cz0iMTI1My41LC01MzguMjcgMTI1MCwtNTI4LjI3IDEyNDYuNSwtNTM4LjI3IDEyNTMuNSwtNTM4LjI3IiBzdHJva2U9ImJsdWUiIGZpbGw9ImJsdWUiLz4mI3hhOzx0ZXh0IGZvbnQtc2l6ZT0iMTAuMDAiIGZvbnQtZmFtaWx5PSJIZWx2ZXRpY2Esc2Fucy1TZXJpZiIgeT0iLTYyNCIgeD0iMTMyNy41IiB0ZXh0LWFuY2hvcj0ibWlkZGxlIj5VSSBTRlggU3RyZWFtPC90ZXh0PiYjeGE7PC9nPiYjeGE7JiN4YTs8ZyBjbGFzcz0iZWRnZSIgaWQ9ImVkZ2UyNyI+JiN4YTs8dGl0bGU+QVNQM0RfUG9vbC0mZ3Q7QXVkaW9Bc3NldHM8L3RpdGxlPiYjeGE7PHBhdGggZD0iTTk2MS41LC02OTMuM0M5NjEuNSwtNjkxLjg5IDk2MS41LC02OTEgOTYxLjUsLTY5MSA5NjEuNSwtNjkxIDE2OTUuMTEsLTY5MSAxNjk1LjExLC02OTEiIHN0cm9rZT0iYmxhY2siIGZpbGw9Im5vbmUiLz4mI3hhOzxwb2x5Z29uIHBvaW50cz0iMTY5NS4xMSwtNjk0LjUgMTcwNS4xMSwtNjkxIDE2OTUuMTEsLTY4Ny41IDE2OTUuMTEsLTY5NC41IiBzdHJva2U9ImJsYWNrIiBmaWxsPSJibGFjayIvPiYjeGE7PHRleHQgZm9udC1zaXplPSIxMC4wMCIgZm9udC1mYW1pbHk9IkhlbHZldGljYSxzYW5zLVNlcmlmIiB5PSItODA0IiB4PSIxMzU1IiB0ZXh0LWFuY2hvcj0ibWlkZGxlIj5Vc2VzPC90ZXh0PiYjeGE7PC9nPiYjeGE7JiN4YTs8ZyBjbGFzcz0ibm9kZSIgaWQ9Im5vZGUyMiI+JiN4YTs8dGl0bGU+QnVzX1BsYXllcjwvdGl0bGU+JiN4YTs8cG9seWdvbiBwb2ludHM9IjEwNTIuNSwtNTI4IDEwNDkuNSwtNTMyIDEwMjguNSwtNTMyIDEwMjUuNSwtNTI4IDk5My41LC01MjggOTkzLjUsLTQ5MiAxMDUyLjUsLTQ5MiAxMDUyLjUsLTUyOCIgc3Ryb2tlPSJibGFjayIgZmlsbD0ib3JhbmdlIi8+JiN4YTs8dGV4dCBmb250LXNpemU9IjE0LjAwIiBmb250LWZhbWlseT0iSGVsdmV0aWNhLHNhbnMtU2VyaWYiIHk9Ii01MDYuMyIgeD0iMTAyMyIgdGV4dC1hbmNob3I9Im1pZGRsZSI+UGxheWVyPC90ZXh0PiYjeGE7PC9nPiYjeGE7JiN4YTs8ZyBjbGFzcz0iZWRnZSIgaWQ9ImVkZ2UzNyI+JiN4YTs8dGl0bGU+QVNQM0RfUG9vbC0mZ3Q7QnVzX1BsYXllcjwvdGl0bGU+JiN4YTs8cGF0aCBkPSJNMTAyMC41LC02OTMuNDVDMTAyMC41LC02OTMuNDUgMTAyMC41LC01MzguMjcgMTAyMC41LC01MzguMjciIHN0cm9rZS1kYXNoYXJyYXk9IjUsMiIgc3Ryb2tlPSJibHVlIiBmaWxsPSJub25lIi8+JiN4YTs8cG9seWdvbiBwb2ludHM9IjEwMjQsLTUzOC4yNyAxMDIwLjUsLTUyOC4yNyAxMDE3LC01MzguMjcgMTAyNCwtNTM4LjI3IiBzdHJva2U9ImJsdWUiIGZpbGw9ImJsdWUiLz4mI3hhOzx0ZXh0IGZvbnQtc2l6ZT0iMTAuMDAiIGZvbnQtZmFtaWx5PSJIZWx2ZXRpY2Esc2Fucy1TZXJpZiIgeT0iLTYyNCIgeD0iMTA5OC41IiB0ZXh0LWFuY2hvcj0ibWlkZGxlIj5QbGF5ZXIgU0ZYPC90ZXh0PiYjeGE7PC9nPiYjeGE7JiN4YTs8ZyBjbGFzcz0ibm9kZSIgaWQ9Im5vZGUyMyI+JiN4YTs8dGl0bGU+QnVzX0JhbGw8L3RpdGxlPiYjeGE7PHBvbHlnb24gcG9pbnRzPSIxMTY1LC01MjggMTE2MiwtNTMyIDExNDEsLTUzMiAxMTM4LC01MjggMTExMSwtNTI4IDExMTEsLTQ5MiAxMTY1LC00OTIgMTE2NSwtNTI4IiBzdHJva2U9ImJsYWNrIiBmaWxsPSJvcmFuZ2UiLz4mI3hhOzx0ZXh0IGZvbnQtc2l6ZT0iMTQuMDAiIGZvbnQtZmFtaWx5PSJIZWx2ZXRpY2Esc2Fucy1TZXJpZiIgeT0iLTUwNi4zIiB4PSIxMTM4IiB0ZXh0LWFuY2hvcj0ibWlkZGxlIj5CYWxsPC90ZXh0PiYjeGE7PC9nPiYjeGE7JiN4YTs8ZyBjbGFzcz0iZWRnZSIgaWQ9ImVkZ2UzOCI+JiN4YTs8dGl0bGU+QVNQM0RfUG9vbC0mZ3Q7QnVzX0JhbGw8L3RpdGxlPiYjeGE7PHBhdGggZD0iTTEwMzQuMDcsLTcxMkMxMDU2Ljc5LC03MTIgMTA3NCwtNzEyIDEwNzQsLTcxMiAxMDc0LC03MTIgMTA3NCwtNTEwIDEwNzQsLTUxMCAxMDc0LC01MTAgMTEwMC44NiwtNTEwIDExMDAuODYsLTUxMCIgc3Ryb2tlLWRhc2hhcnJheT0iNSwyIiBzdHJva2U9ImJsdWUiIGZpbGw9Im5vbmUiLz4mI3hhOzxwb2x5Z29uIHBvaW50cz0iMTEwMC44NiwtNTEzLjUgMTExMC44NiwtNTEwIDExMDAuODYsLTUwNi41IDExMDAuODYsLTUxMy41IiBzdHJva2U9ImJsdWUiIGZpbGw9ImJsdWUiLz4mI3hhOzx0ZXh0IGZvbnQtc2l6ZT0iMTAuMDAiIGZvbnQtZmFtaWx5PSJIZWx2ZXRpY2Esc2Fucy1TZXJpZiIgeT0iLTYyNCIgeD0iMTIwOC41IiB0ZXh0LWFuY2hvcj0ibWlkZGxlIj5CYWxsIFNGWDwvdGV4dD4mI3hhOzwvZz4mI3hhOyYjeGE7PGcgY2xhc3M9Im5vZGUiIGlkPSJub2RlMjQiPiYjeGE7PHRpdGxlPkJ1c19BYmlsaXR5PC90aXRsZT4mI3hhOzxwb2x5Z29uIHBvaW50cz0iODIzLC01MjggODIwLC01MzIgNzk5LC01MzIgNzk2LC01MjggNzYzLC01MjggNzYzLC00OTIgODIzLC00OTIgODIzLC01MjgiIHN0cm9rZT0iYmxhY2siIGZpbGw9Im9yYW5nZSIvPiYjeGE7PHRleHQgZm9udC1zaXplPSIxNC4wMCIgZm9udC1mYW1pbHk9IkhlbHZldGljYSxzYW5zLVNlcmlmIiB5PSItNTA2LjMiIHg9Ijc5MyIgdGV4dC1hbmNob3I9Im1pZGRsZSI+QWJpbGl0eTwvdGV4dD4mI3hhOzwvZz4mI3hhOyYjeGE7PGcgY2xhc3M9ImVkZ2UiIGlkPSJlZGdlMzkiPiYjeGE7PHRpdGxlPkFTUDNEX1Bvb2wtJmd0O0J1c19BYmlsaXR5PC90aXRsZT4mI3hhOzxwYXRoIGQ9Ik04MTkuNSwtNjkzLjQ1QzgxOS41LC02OTMuNDUgODE5LjUsLTUzOC4yNyA4MTkuNSwtNTM4LjI3IiBzdHJva2UtZGFzaGFycmF5PSI1LDIiIHN0cm9rZT0iYmx1ZSIgZmlsbD0ibm9uZSIvPiYjeGE7PHBvbHlnb24gcG9pbnRzPSI4MjMsLTUzOC4yNyA4MTkuNSwtNTI4LjI3IDgxNiwtNTM4LjI3IDgyMywtNTM4LjI3IiBzdHJva2U9ImJsdWUiIGZpbGw9ImJsdWUiLz4mI3hhOzx0ZXh0IGZvbnQtc2l6ZT0iMTAuMDAiIGZvbnQtZmFtaWx5PSJIZWx2ZXRpY2Esc2Fucy1TZXJpZiIgeT0iLTYyNCIgeD0iNjU5IiB0ZXh0LWFuY2hvcj0ibWlkZGxlIj5BYmlsaXR5IFNGWDwvdGV4dD4mI3hhOzwvZz4mI3hhOyYjeGE7PGcgY2xhc3M9Im5vZGUiIGlkPSJub2RlMjUiPiYjeGE7PHRpdGxlPkJ1c19FbnY8L3RpdGxlPiYjeGE7PHBvbHlnb24gcG9pbnRzPSI5MzUsLTUyOCA5MzIsLTUzMiA5MTEsLTUzMiA5MDgsLTUyOCA4ODEsLTUyOCA4ODEsLTQ5MiA5MzUsLTQ5MiA5MzUsLTUyOCIgc3Ryb2tlPSJibGFjayIgZmlsbD0ib3JhbmdlIi8+JiN4YTs8dGV4dCBmb250LXNpemU9IjE0LjAwIiBmb250LWZhbWlseT0iSGVsdmV0aWNhLHNhbnMtU2VyaWYiIHk9Ii01MDYuMyIgeD0iOTA4IiB0ZXh0LWFuY2hvcj0ibWlkZGxlIj5FbnY8L3RleHQ+JiN4YTs8L2c+JiN4YTsmI3hhOzxnIGNsYXNzPSJlZGdlIiBpZD0iZWRnZTQwIj4mI3hhOzx0aXRsZT5BU1AzRF9Qb29sLSZndDtCdXNfRW52PC90aXRsZT4mI3hhOzxwYXRoIGQ9Ik05MTcsLTY5My40NUM5MTcsLTY5My40NSA5MTcsLTUzOC4yNyA5MTcsLTUzOC4yNyIgc3Ryb2tlLWRhc2hhcnJheT0iNSwyIiBzdHJva2U9ImJsdWUiIGZpbGw9Im5vbmUiLz4mI3hhOzxwb2x5Z29uIHBvaW50cz0iOTIwLjUsLTUzOC4yNyA5MTcsLTUyOC4yNyA5MTMuNSwtNTM4LjI3IDkyMC41LC01MzguMjciIHN0cm9rZT0iYmx1ZSIgZmlsbD0iYmx1ZSIvPiYjeGE7PHRleHQgZm9udC1zaXplPSIxMC4wMCIgZm9udC1mYW1pbHk9IkhlbHZldGljYSxzYW5zLVNlcmlmIiB5PSItNjI0IiB4PSI4ODUiIHRleHQtYW5jaG9yPSJtaWRkbGUiPkVudiBTRlg8L3RleHQ+JiN4YTs8L2c+JiN4YTsmI3hhOzxnIGNsYXNzPSJlZGdlIiBpZD0iZWRnZTI4Ij4mI3hhOzx0aXRsZT5BU1BfQXR0YWNoZWQtJmd0O0F1ZGlvQXNzZXRzPC90aXRsZT4mI3hhOzxwYXRoIGQ9Ik0xNTkwLjMyLC03MTJDMTU5MC4zMiwtNzEyIDE2OTUuMzUsLTcxMiAxNjk1LjM1LC03MTIiIHN0cm9rZT0iYmxhY2siIGZpbGw9Im5vbmUiLz4mI3hhOzxwb2x5Z29uIHBvaW50cz0iMTY5NS4zNSwtNzE1LjUgMTcwNS4zNSwtNzEyIDE2OTUuMzUsLTcwOC41IDE2OTUuMzUsLTcxNS41IiBzdHJva2U9ImJsYWNrIiBmaWxsPSJibGFjayIvPiYjeGE7PC9nPiYjeGE7JiN4YTs8ZyBjbGFzcz0ibm9kZSIgaWQ9Im5vZGUxOSI+JiN4YTs8dGl0bGU+QnVzX011c2ljPC90aXRsZT4mI3hhOzxwb2x5Z29uIHBvaW50cz0iMTI1MywtMzcyLjUgMTI1MCwtMzc2LjUgMTIyOSwtMzc2LjUgMTIyNiwtMzcyLjUgMTE5NywtMzcyLjUgMTE5NywtMzM2LjUgMTI1MywtMzM2LjUgMTI1MywtMzcyLjUiIHN0cm9rZT0iYmxhY2siIGZpbGw9Im9yYW5nZSIvPiYjeGE7PHRleHQgZm9udC1zaXplPSIxNC4wMCIgZm9udC1mYW1pbHk9IkhlbHZldGljYSxzYW5zLVNlcmlmIiB5PSItMzUwLjgiIHg9IjEyMjUiIHRleHQtYW5jaG9yPSJtaWRkbGUiPk11c2ljPC90ZXh0PiYjeGE7PC9nPiYjeGE7JiN4YTs8ZyBjbGFzcz0iZWRnZSIgaWQ9ImVkZ2UzMCI+JiN4YTs8dGl0bGU+QVNQX0F0dGFjaGVkLSZndDtCdXNfTXVzaWM8L3RpdGxlPiYjeGE7PHBhdGggZD0iTTE1MTYsLTY5My4yM0MxNTE2LC02MTguNzYgMTUxNiwtMzU0IDE1MTYsLTM1NCAxNTE2LC0zNTQgMTI2My4xNywtMzU0IDEyNjMuMTcsLTM1NCIgc3Ryb2tlLWRhc2hhcnJheT0iNSwyIiBzdHJva2U9ImJsdWUiIGZpbGw9Im5vbmUiLz4mI3hhOzxwb2x5Z29uIHBvaW50cz0iMTI2My4xNywtMzUwLjUgMTI1My4xNywtMzU0IDEyNjMuMTcsLTM1Ny41IDEyNjMuMTcsLTM1MC41IiBzdHJva2U9ImJsdWUiIGZpbGw9ImJsdWUiLz4mI3hhOzx0ZXh0IGZvbnQtc2l6ZT0iMTAuMDAiIGZvbnQtZmFtaWx5PSJIZWx2ZXRpY2Esc2Fucy1TZXJpZiIgeT0iLTUwNy41IiB4PSIxNTY1LjUiIHRleHQtYW5jaG9yPSJtaWRkbGUiPk11c2ljIFN0cmVhbTwvdGV4dD4mI3hhOzwvZz4mI3hhOyYjeGE7PGcgY2xhc3M9ImVkZ2UiIGlkPSJlZGdlMzEiPiYjeGE7PHRpdGxlPkFTUF9BdHRhY2hlZC0mZ3Q7QnVzX1VJPC90aXRsZT4mI3hhOzxwYXRoIGQ9Ik0xNDQyLC02OTMuNDVDMTQ0MiwtNjQzLjA0IDE0NDIsLTUxMCAxNDQyLC01MTAgMTQ0MiwtNTEwIDEyODcuMSwtNTEwIDEyODcuMSwtNTEwIiBzdHJva2UtZGFzaGFycmF5PSI1LDIiIHN0cm9rZT0iYmx1ZSIgZmlsbD0ibm9uZSIvPiYjeGE7PHBvbHlnb24gcG9pbnRzPSIxMjg3LjEsLTUwNi41IDEyNzcuMSwtNTEwIDEyODcuMSwtNTEzLjUgMTI4Ny4xLC01MDYuNSIgc3Ryb2tlPSJibHVlIiBmaWxsPSJibHVlIi8+JiN4YTs8dGV4dCBmb250LXNpemU9IjEwLjAwIiBmb250LWZhbWlseT0iSGVsdmV0aWNhLHNhbnMtU2VyaWYiIHk9Ii02MjQiIHg9IjE0NjEuNSIgdGV4dC1hbmNob3I9Im1pZGRsZSI+VUkgU0ZYIFN0cmVhbTwvdGV4dD4mI3hhOzwvZz4mI3hhOyYjeGE7PGcgY2xhc3M9ImVkZ2UiIGlkPSJlZGdlMjkiPiYjeGE7PHRpdGxlPkFTUDNEX0F0dGFjaGVkLSZndDtBdWRpb0Fzc2V0czwvdGl0bGU+JiN4YTs8cGF0aCBkPSJNNTk2LjY3LC03MzEuN0M1OTYuNjcsLTczMy4xMSA1OTYuNjcsLTczNCA1OTYuNjcsLTczNCA1OTYuNjcsLTczNCAxNjk1LjM2LC03MzQgMTY5NS4zNiwtNzM0IiBzdHJva2U9ImJsYWNrIiBmaWxsPSJub25lIi8+JiN4YTs8cG9seWdvbiBwb2ludHM9IjE2OTUuMzYsLTczNy41IDE3MDUuMzYsLTczNCAxNjk1LjM2LC03MzAuNSAxNjk1LjM2LC03MzcuNSIgc3Ryb2tlPSJibGFjayIgZmlsbD0iYmxhY2siLz4mI3hhOzx0ZXh0IGZvbnQtc2l6ZT0iMTAuMDAiIGZvbnQtZmFtaWx5PSJIZWx2ZXRpY2Esc2Fucy1TZXJpZiIgeT0iLTgwNCIgeD0iMTI4NiIgdGV4dC1hbmNob3I9Im1pZGRsZSI+VXNlczwvdGV4dD4mI3hhOzwvZz4mI3hhOyYjeGE7PGcgY2xhc3M9ImVkZ2UiIGlkPSJlZGdlMzMiPiYjeGE7PHRpdGxlPkFTUDNEX0F0dGFjaGVkLSZndDtCdXNfUGxheWVyPC90aXRsZT4mI3hhOzxwYXRoIGQ9Ik02MzcsLTY5My4yQzYzNywtNjkwLjE2IDYzNywtNjg4IDYzNywtNjg4IDYzNywtNjg4IDEwMDcsLTY4OCAxMDA3LC02ODggMTAwNywtNjg4IDEwMDcsLTUzOC4wNSAxMDA3LC01MzguMDUiIHN0cm9rZS1kYXNoYXJyYXk9IjUsMiIgc3Ryb2tlPSJibHVlIiBmaWxsPSJub25lIi8+JiN4YTs8cG9seWdvbiBwb2ludHM9IjEwMTAuNSwtNTM4LjA1IDEwMDcsLTUyOC4wNSAxMDAzLjUsLTUzOC4wNSAxMDEwLjUsLTUzOC4wNSIgc3Ryb2tlPSJibHVlIiBmaWxsPSJibHVlIi8+JiN4YTs8dGV4dCBmb250LXNpemU9IjEwLjAwIiBmb250LWZhbWlseT0iSGVsdmV0aWNhLHNhbnMtU2VyaWYiIHk9Ii02MjQiIHg9Ijc3NS41IiB0ZXh0LWFuY2hvcj0ibWlkZGxlIj5QbGF5ZXIgU0ZYPC90ZXh0PiYjeGE7PC9nPiYjeGE7JiN4YTs8ZyBjbGFzcz0iZWRnZSIgaWQ9ImVkZ2UzNCI+JiN4YTs8dGl0bGU+QVNQM0RfQXR0YWNoZWQtJmd0O0J1c19CYWxsPC90aXRsZT4mI3hhOzxwYXRoIGQ9Ik02OTcuNSwtNjkzLjA5QzY5Ny41LC02OTAuNjYgNjk3LjUsLTY4OSA2OTcuNSwtNjg5IDY5Ny41LC02ODkgMTEzOCwtNjg5IDExMzgsLTY4OSAxMTM4LC02ODkgMTEzOCwtNTM4LjE1IDExMzgsLTUzOC4xNSIgc3Ryb2tlLWRhc2hhcnJheT0iNSwyIiBzdHJva2U9ImJsdWUiIGZpbGw9Im5vbmUiLz4mI3hhOzxwb2x5Z29uIHBvaW50cz0iMTE0MS41LC01MzguMTUgMTEzOCwtNTI4LjE1IDExMzQuNSwtNTM4LjE1IDExNDEuNSwtNTM4LjE1IiBzdHJva2U9ImJsdWUiIGZpbGw9ImJsdWUiLz4mI3hhOzx0ZXh0IGZvbnQtc2l6ZT0iMTAuMDAiIGZvbnQtZmFtaWx5PSJIZWx2ZXRpY2Esc2Fucy1TZXJpZiIgeT0iLTYyNCIgeD0iOTg4LjUiIHRleHQtYW5jaG9yPSJtaWRkbGUiPkJhbGwgU0ZYPC90ZXh0PiYjeGE7PC9nPiYjeGE7JiN4YTs8ZyBjbGFzcz0iZWRnZSIgaWQ9ImVkZ2UzNSI+JiN4YTs8dGl0bGU+QVNQM0RfQXR0YWNoZWQtJmd0O0J1c19BYmlsaXR5PC90aXRsZT4mI3hhOzxwYXRoIGQ9Ik03NTguMjcsLTcxMkM3NzYuNTgsLTcxMiA3ODkuNSwtNzEyIDc4OS41LC03MTIgNzg5LjUsLTcxMiA3ODkuNSwtNTM4LjI4IDc4OS41LC01MzguMjgiIHN0cm9rZS1kYXNoYXJyYXk9IjUsMiIgc3Ryb2tlPSJibHVlIiBmaWxsPSJub25lIi8+JiN4YTs8cG9seWdvbiBwb2ludHM9Ijc5MywtNTM4LjI4IDc4OS41LC01MjguMjggNzg2LC01MzguMjggNzkzLC01MzguMjgiIHN0cm9rZT0iYmx1ZSIgZmlsbD0iYmx1ZSIvPiYjeGE7PHRleHQgZm9udC1zaXplPSIxMC4wMCIgZm9udC1mYW1pbHk9IkhlbHZldGljYSxzYW5zLVNlcmlmIiB5PSItNjI0IiB4PSI0MzkiIHRleHQtYW5jaG9yPSJtaWRkbGUiPkFiaWxpdHkgU0ZYPC90ZXh0PiYjeGE7PC9nPiYjeGE7JiN4YTs8ZyBjbGFzcz0iZWRnZSIgaWQ9ImVkZ2UzNiI+JiN4YTs8dGl0bGU+QVNQM0RfQXR0YWNoZWQtJmd0O0J1c19FbnY8L3RpdGxlPiYjeGE7PHBhdGggZD0iTTU3Ni41LC02OTMuNDNDNTc2LjUsLTY4OS43NSA1NzYuNSwtNjg3IDU3Ni41LC02ODcgNTc2LjUsLTY4NyA4OTksLTY4NyA4OTksLTY4NyA4OTksLTY4NyA4OTksLTUzOC4yOCA4OTksLTUzOC4yOCIgc3Ryb2tlLWRhc2hhcnJheT0iNSwyIiBzdHJva2U9ImJsdWUiIGZpbGw9Im5vbmUiLz4mI3hhOzxwb2x5Z29uIHBvaW50cz0iOTAyLjUsLTUzOC4yOCA4OTksLTUyOC4yOCA4OTUuNSwtNTM4LjI4IDkwMi41LC01MzguMjgiIHN0cm9rZT0iYmx1ZSIgZmlsbD0iYmx1ZSIvPiYjeGE7PHRleHQgZm9udC1zaXplPSIxMC4wMCIgZm9udC1mYW1pbHk9IkhlbHZldGljYSxzYW5zLVNlcmlmIiB5PSItNjI0IiB4PSI1NDkiIHRleHQtYW5jaG9yPSJtaWRkbGUiPkVudiBTRlg8L3RleHQ+JiN4YTs8L2c+JiN4YTsmI3hhOzxnIGNsYXNzPSJub2RlIiBpZD0ibm9kZTE4Ij4mI3hhOzx0aXRsZT5CdXNfTWFzdGVyPC90aXRsZT4mI3hhOzxwb2x5Z29uIHBvaW50cz0iMTIwMSwtMjE3IDExOTgsLTIyMSAxMTc3LC0yMjEgMTE3NCwtMjE3IDExMzcsLTIxNyAxMTM3LC0xODEgMTIwMSwtMTgxIDEyMDEsLTIxNyIgc3Ryb2tlPSJibGFjayIgZmlsbD0ib3JhbmdlIi8+JiN4YTs8dGV4dCBmb250LXNpemU9IjE0LjAwIiBmb250LWZhbWlseT0iSGVsdmV0aWNhLHNhbnMtU2VyaWYiIHk9Ii0xOTUuMyIgeD0iMTE2OSIgdGV4dC1hbmNob3I9Im1pZGRsZSI+TWFzdGVyPC90ZXh0PiYjeGE7PC9nPiYjeGE7JiN4YTs8ZyBjbGFzcz0iZWRnZSIgaWQ9ImVkZ2UxNCI+JiN4YTs8dGl0bGU+QnVzX01hc3Rlci0mZ3Q7QXVkaW9TZXJ2ZXI8L3RpdGxlPiYjeGE7PHBhdGggZD0iTTExODcuNSwtMTgwLjhDMTE4Ny41LC0xODAuOCAxMTg3LjUsLTcxLjA4IDExODcuNSwtNzEuMDgiIHN0cm9rZS1kYXNoYXJyYXk9IjUsMiIgc3Ryb2tlPSJibHVlIiBmaWxsPSJub25lIi8+JiN4YTs8cG9seWdvbiBwb2ludHM9IjExOTEsLTcxLjA4IDExODcuNSwtNjEuMDggMTE4NCwtNzEuMDggMTE5MSwtNzEuMDgiIHN0cm9rZT0iYmx1ZSIgZmlsbD0iYmx1ZSIvPiYjeGE7PHRleHQgZm9udC1zaXplPSIxMC4wMCIgZm9udC1mYW1pbHk9IkhlbHZldGljYSxzYW5zLVNlcmlmIiB5PSItMTE5IiB4PSIxMjMyLjUiIHRleHQtYW5jaG9yPSJtaWRkbGUiPk91dHB1dCB0byBEZXZpY2U8L3RleHQ+JiN4YTs8L2c+JiN4YTsmI3hhOzxnIGNsYXNzPSJub2RlIiBpZD0ibm9kZTI2Ij4mI3hhOzx0aXRsZT5CdXNfRWZmZWN0czwvdGl0bGU+JiN4YTs8cG9seWdvbiBwb2ludHM9IjExMDAuNSwtNTYgOTQ1LjUsLTU2IDk0NS41LC0zMCAxMTAwLjUsLTMwIDExMTIuNSwtNDMgMTEwMC41LC01NiIgc3Ryb2tlPSJibGFjayIgZmlsbD0ibGlnaHRncmV5Ii8+JiN4YTs8dGV4dCBmb250LXNpemU9IjE0LjAwIiBmb250LWZhbWlseT0iSGVsdmV0aWNhLHNhbnMtU2VyaWYiIHk9Ii00Ni44IiB4PSIxMDI5IiB0ZXh0LWFuY2hvcj0ibWlkZGxlIj5BdWRpbyBFZmZlY3RzPC90ZXh0PiYjeGE7PHRleHQgZm9udC1zaXplPSIxNC4wMCIgZm9udC1mYW1pbHk9IkhlbHZldGljYSxzYW5zLVNlcmlmIiB5PSItMzEuOCIgeD0iMTAyOSIgdGV4dC1hbmNob3I9Im1pZGRsZSI+KFJldmVyYiwgTGltaXRlciwgZXRjLik8L3RleHQ+JiN4YTs8L2c+JiN4YTsmI3hhOzxnIGNsYXNzPSJlZGdlIiBpZD0iZWRnZTE1Ij4mI3hhOzx0aXRsZT5CdXNfTWFzdGVyLSZndDtCdXNfRWZmZWN0czwvdGl0bGU+JiN4YTs8cGF0aCBkPSJNMTEzNi44MywtMTk5QzExMTkuNDUsLTE5OSAxMTAxLjUsLTE5OSAxMTAxLjUsLTE5OSAxMTAxLjUsLTE5OSAxMTAxLjUsLTcyLjEzIDExMDEuNSwtNzIuMTMiIHN0cm9rZS1kYXNoYXJyYXk9IjEsNSIgc3Ryb2tlPSJncmV5IiBmaWxsPSJub25lIi8+JiN4YTs8cG9seWdvbiBwb2ludHM9IjExMDUsLTcyLjEzIDExMDEuNSwtNjIuMTMgMTA5OCwtNzIuMTMgMTEwNSwtNzIuMTMiIHN0cm9rZT0iZ3JleSIgZmlsbD0iZ3JleSIvPiYjeGE7PHRleHQgZm9udC1zaXplPSIxMC4wMCIgZm9udC1mYW1pbHk9IkhlbHZldGljYSxzYW5zLVNlcmlmIiB5PSItMTE5IiB4PSIxMTEyIiB0ZXh0LWFuY2hvcj0ibWlkZGxlIj5hcHBseTwvdGV4dD4mI3hhOzwvZz4mI3hhOyYjeGE7PGcgY2xhc3M9ImVkZ2UiIGlkPSJlZGdlMTMiPiYjeGE7PHRpdGxlPkJ1c19NdXNpYy0mZ3Q7QnVzX01hc3RlcjwvdGl0bGU+JiN4YTs8cGF0aCBkPSJNMTE5Ni45LC0zNDNDMTE5MC45LC0zNDMgMTE4Ni4zMywtMzQzIDExODYuMzMsLTM0MyAxMTg2LjMzLC0zNDMgMTE4Ni4zMywtMjI3LjI0IDExODYuMzMsLTIyNy4yNCIgc3Ryb2tlLWRhc2hhcnJheT0iNSwyIiBzdHJva2U9ImJsdWUiIGZpbGw9Im5vbmUiLz4mI3hhOzxwb2x5Z29uIHBvaW50cz0iMTE4OS44MywtMjI3LjI0IDExODYuMzMsLTIxNy4yNCAxMTgyLjgzLC0yMjcuMjQgMTE4OS44MywtMjI3LjI0IiBzdHJva2U9ImJsdWUiIGZpbGw9ImJsdWUiLz4mI3hhOzwvZz4mI3hhOyYjeGE7PGcgY2xhc3M9Im5vZGUiIGlkPSJub2RlMjAiPiYjeGE7PHRpdGxlPkJ1c19TRlg8L3RpdGxlPiYjeGE7PHBvbHlnb24gcG9pbnRzPSIxMDU2LC0zNzIuNSAxMDUzLC0zNzYuNSAxMDMyLC0zNzYuNSAxMDI5LC0zNzIuNSAxMDAyLC0zNzIuNSAxMDAyLC0zMzYuNSAxMDU2LC0zMzYuNSAxMDU2LC0zNzIuNSIgc3Ryb2tlPSJibGFjayIgZmlsbD0ib3JhbmdlIi8+JiN4YTs8dGV4dCBmb250LXNpemU9IjE0LjAwIiBmb250LWZhbWlseT0iSGVsdmV0aWNhLHNhbnMtU2VyaWYiIHk9Ii0zNTAuOCIgeD0iMTAyOSIgdGV4dC1hbmNob3I9Im1pZGRsZSI+U0ZYPC90ZXh0PiYjeGE7PC9nPiYjeGE7JiN4YTs8ZyBjbGFzcz0iZWRnZSIgaWQ9ImVkZ2UxMiI+JiN4YTs8dGl0bGU+QnVzX1NGWC0mZ3Q7QnVzX01hc3RlcjwvdGl0bGU+JiN4YTs8cGF0aCBkPSJNMTA1Ni4wOCwtMzUwQzEwOTIuMDIsLTM1MCAxMTUxLC0zNTAgMTE1MSwtMzUwIDExNTEsLTM1MCAxMTUxLC0yMjcuMjEgMTE1MSwtMjI3LjIxIiBzdHJva2UtZGFzaGFycmF5PSI1LDIiIHN0cm9rZT0iYmx1ZSIgZmlsbD0ibm9uZSIvPiYjeGE7PHBvbHlnb24gcG9pbnRzPSIxMTU0LjUsLTIyNy4yMSAxMTUxLC0yMTcuMjEgMTE0Ny41LC0yMjcuMjEgMTE1NC41LC0yMjcuMjEiIHN0cm9rZT0iYmx1ZSIgZmlsbD0iYmx1ZSIvPiYjeGE7PC9nPiYjeGE7JiN4YTs8ZyBjbGFzcz0iZWRnZSIgaWQ9ImVkZ2UxNiI+JiN4YTs8dGl0bGU+QnVzX1NGWC0mZ3Q7QnVzX0VmZmVjdHM8L3RpdGxlPiYjeGE7PHBhdGggZD0iTTEwMjksLTMzNi40MUMxMDI5LC0zMzYuNDEgMTAyOSwtNzIuMzMgMTAyOSwtNzIuMzMiIHN0cm9rZS1kYXNoYXJyYXk9IjEsNSIgc3Ryb2tlPSJncmV5IiBmaWxsPSJub25lIi8+JiN4YTs8cG9seWdvbiBwb2ludHM9IjEwMzIuNSwtNzIuMzMgMTAyOSwtNjIuMzMgMTAyNS41LC03Mi4zMyAxMDMyLjUsLTcyLjMzIiBzdHJva2U9ImdyZXkiIGZpbGw9ImdyZXkiLz4mI3hhOzx0ZXh0IGZvbnQtc2l6ZT0iMTAuMDAiIGZvbnQtZmFtaWx5PSJIZWx2ZXRpY2Esc2Fucy1TZXJpZiIgeT0iLTE5Ni41IiB4PSIxMDQzIiB0ZXh0LWFuY2hvcj0ibWlkZGxlIj5hcHBseTwvdGV4dD4mI3hhOzwvZz4mI3hhOyYjeGE7PGcgY2xhc3M9ImVkZ2UiIGlkPSJlZGdlNyI+JiN4YTs8dGl0bGU+QnVzX1VJLSZndDtCdXNfU0ZYPC90aXRsZT4mI3hhOzxwYXRoIGQ9Ik0xMjIyLjc0LC01MTBDMTIwMS41MywtNTEwIDExNzUuNjcsLTUxMCAxMTc1LjY3LC01MTAgMTE3NS42NywtNTEwIDExNzUuNjcsLTM1OCAxMTc1LjY3LC0zNTggMTE3NS42NywtMzU4IDEwNjYuMjQsLTM1OCAxMDY2LjI0LC0zNTgiIHN0cm9rZS1kYXNoYXJyYXk9IjUsMiIgc3Ryb2tlPSJibHVlIiBmaWxsPSJub25lIi8+JiN4YTs8cG9seWdvbiBwb2ludHM9IjEwNjYuMjQsLTM1NC41IDEwNTYuMjQsLTM1OCAxMDY2LjI0LC0zNjEuNSAxMDY2LjI0LC0zNTQuNSIgc3Ryb2tlPSJibHVlIiBmaWxsPSJibHVlIi8+JiN4YTs8L2c+JiN4YTsmI3hhOzxnIGNsYXNzPSJlZGdlIiBpZD0iZWRnZTgiPiYjeGE7PHRpdGxlPkJ1c19QbGF5ZXItJmd0O0J1c19TRlg8L3RpdGxlPiYjeGE7PHBhdGggZD0iTTEwMjcuMjUsLTQ5MS44NkMxMDI3LjI1LC00OTEuODYgMTAyNy4yNSwtMzgyLjUzIDEwMjcuMjUsLTM4Mi41MyIgc3Ryb2tlLWRhc2hhcnJheT0iNSwyIiBzdHJva2U9ImJsdWUiIGZpbGw9Im5vbmUiLz4mI3hhOzxwb2x5Z29uIHBvaW50cz0iMTAzMC43NSwtMzgyLjUzIDEwMjcuMjUsLTM3Mi41MyAxMDIzLjc1LC0zODIuNTMgMTAzMC43NSwtMzgyLjUzIiBzdHJva2U9ImJsdWUiIGZpbGw9ImJsdWUiLz4mI3hhOzwvZz4mI3hhOyYjeGE7PGcgY2xhc3M9ImVkZ2UiIGlkPSJlZGdlOSI+JiN4YTs8dGl0bGU+QnVzX0JhbGwtJmd0O0J1c19TRlg8L3RpdGxlPiYjeGE7PHBhdGggZD0iTTExMjQuNzUsLTQ5MS45M0MxMTI0Ljc1LC00NTMuMDYgMTEyNC43NSwtMzY1IDExMjQuNzUsLTM2NSAxMTI0Ljc1LC0zNjUgMTA2Ni4xOCwtMzY1IDEwNjYuMTgsLTM2NSIgc3Ryb2tlLWRhc2hhcnJheT0iNSwyIiBzdHJva2U9ImJsdWUiIGZpbGw9Im5vbmUiLz4mI3hhOzxwb2x5Z29uIHBvaW50cz0iMTA2Ni4xOCwtMzYxLjUgMTA1Ni4xOCwtMzY1IDEwNjYuMTgsLTM2OC41IDEwNjYuMTgsLTM2MS41IiBzdHJva2U9ImJsdWUiIGZpbGw9ImJsdWUiLz4mI3hhOzwvZz4mI3hhOyYjeGE7PGcgY2xhc3M9ImVkZ2UiIGlkPSJlZGdlMTAiPiYjeGE7PHRpdGxlPkJ1c19BYmlsaXR5LSZndDtCdXNfU0ZYPC90aXRsZT4mI3hhOzxwYXRoIGQ9Ik03OTMsLTQ5MS43M0M3OTMsLTQ0OS4zNiA3OTMsLTM0OCA3OTMsLTM0OCA3OTMsLTM0OCA5OTEuOTMsLTM0OCA5OTEuOTMsLTM0OCIgc3Ryb2tlLWRhc2hhcnJheT0iNSwyIiBzdHJva2U9ImJsdWUiIGZpbGw9Im5vbmUiLz4mI3hhOzxwb2x5Z29uIHBvaW50cz0iOTkxLjkzLC0zNTEuNSAxMDAxLjkzLC0zNDggOTkxLjkzLC0zNDQuNSA5OTEuOTMsLTM1MS41IiBzdHJva2U9ImJsdWUiIGZpbGw9ImJsdWUiLz4mI3hhOzwvZz4mI3hhOyYjeGE7PGcgY2xhc3M9ImVkZ2UiIGlkPSJlZGdlMTEiPiYjeGE7PHRpdGxlPkJ1c19FbnYtJmd0O0J1c19TRlg8L3RpdGxlPiYjeGE7PHBhdGggZD0iTTkwOCwtNDkxLjkxQzkwOCwtNDUyLjAxIDkwOCwtMzYwIDkwOCwtMzYwIDkwOCwtMzYwIDk5MS44NSwtMzYwIDk5MS44NSwtMzYwIiBzdHJva2UtZGFzaGFycmF5PSI1LDIiIHN0cm9rZT0iYmx1ZSIgZmlsbD0ibm9uZSIvPiYjeGE7PHBvbHlnb24gcG9pbnRzPSI5OTEuODUsLTM2My41IDEwMDEuODUsLTM2MCA5OTEuODUsLTM1Ni41IDk5MS44NSwtMzYzLjUiIHN0cm9rZT0iYmx1ZSIgZmlsbD0iYmx1ZSIvPiYjeGE7PC9nPiYjeGE7JiN4YTs8ZyBjbGFzcz0iZWRnZSIgaWQ9ImVkZ2UxNyI+JiN4YTs8dGl0bGU+QnVzX0Vudi0mZ3Q7QnVzX0VmZmVjdHM8L3RpdGxlPiYjeGE7PHBhdGggZD0iTTkzNS4wNywtNTEwQzk1NC41OCwtNTEwIDk3Ny41LC01MTAgOTc3LjUsLTUxMCA5NzcuNSwtNTEwIDk3Ny41LC03Mi4xOCA5NzcuNSwtNzIuMTgiIHN0cm9rZS1kYXNoYXJyYXk9IjEsNSIgc3Ryb2tlPSJncmV5IiBmaWxsPSJub25lIi8+JiN4YTs8cG9seWdvbiBwb2ludHM9Ijk4MSwtNzIuMTggOTc3LjUsLTYyLjE4IDk3NCwtNzIuMTggOTgxLC03Mi4xOCIgc3Ryb2tlPSJncmV5IiBmaWxsPSJncmV5Ii8+JiN4YTs8dGV4dCBmb250LXNpemU9IjEwLjAwIiBmb250LWZhbWlseT0iSGVsdmV0aWNhLHNhbnMtU2VyaWYiIHk9Ii0yNzQiIHg9IjkyNCIgdGV4dC1hbmNob3I9Im1pZGRsZSI+YXBwbHk8L3RleHQ+JiN4YTs8L2c+JiN4YTs8L2c+JiN4YTs8L3N2Zz4=;" vertex="1" parent="1">
          <mxGeometry width="1200" height="700" as="geometry" />
        </mxCell>
      </root>
    </mxGraphModel>
  </diagram>
</mxfile>
